<svg xmlns="http://www.w3.org/2000/svg" id="Capa_1" x="0" y="0" version="1.1" viewBox="0 0 1890.93 1349.1" xml:space="preserve">
  <style>
    .st1{fill:#e5c9be}.st3{fill:#e3bdc2}.st5{fill:#cab2aa}.st6{fill:#ffde17;stroke:#2c0043;stroke-width:8.5488;stroke-miterlimit:10}.st7{fill:#fbc2ac}.st8{fill:#fff}.st11{fill:#80aabf}.st12,.st13{fill:#3bbfbf;stroke:#2c0043;stroke-width:6.8251;stroke-miterlimit:10}.st13{fill:#a07ab6;stroke-width:8.5488}.st14{fill:#8391ad}.st15,.st16{fill:#a07ab6;stroke:#2c0043;stroke-width:5.7577;stroke-miterlimit:10}.st16{fill:#f285b5;stroke-width:8.5488}.st17{fill:#bb98aa}.st22{fill:#babbd3}.st24{fill:#b8d5de}.st26{fill:#e3c9d6}.st28{fill:#d28fbe;stroke:#2c0043;stroke-width:11.7625;stroke-linecap:round;stroke-miterlimit:10}.st29{fill:#dfc0cf}.st30{fill:none;stroke:#2c0043;stroke-width:11.7625;stroke-linecap:round;stroke-miterlimit:10}.st37{fill:#2c0043}.st40,.st41,.st42{fill:#fff;stroke:#2c0043;stroke-width:8.1768;stroke-linecap:round;stroke-miterlimit:10}.st41,.st42{fill:#facfe2}.st42{fill:none}.st43{opacity:.5;fill:#fff}.st44{fill:#d4effc}.st45{fill:#7accc6;stroke:#2c0043;stroke-width:11.7625;stroke-linecap:round;stroke-miterlimit:10}.st46{fill:#e5b3ca}.st47{opacity:.5;fill:#fad3e4}.st48{fill:none;stroke:#2c0043;stroke-width:12.2896;stroke-linecap:round;stroke-miterlimit:10}.st49{opacity:.5}
  </style>
  <path fill="#e1a57b" stroke="#2c0043" stroke-miterlimit="10" stroke-width="8.204" d="M1182.3 347.23c-2.48-4.32-5.03-8.61-7.61-12.87C1064.07 152.15 863.74 30.4 634.99 30.4c-305.34 0-560.04 216.95-618.34 505.1a626.935 626.935 0 00-9.71 65.82 632.188 632.188 0 00-2.84 59.97c0 348.44 282.45 630.89 630.89 630.89s630.89-282.45 630.89-630.89c0-114.34-30.41-221.59-83.58-314.06zM634.99 854.38c-106.65 0-193.09-86.45-193.09-193.09 0-106.65 86.44-193.09 193.09-193.09s193.1 86.45 193.1 193.09c0 106.65-86.45 193.09-193.1 193.09z"/>
  <path d="M1167.52 525.72c-29.98-42.18-89.24-32.36-120.51-63.8-19.13-19.24-11.3-46.57-18.43-73.72-5.75-21.91-18.15-49.62-27.65-70.81-25.38-56.54-59.62-66.78-117.85-57.38-111.75 17.97-220.2 19.81-325.29-24.92-46.71-19.88-97.57-42.18-145.99-12.41-26.2 16.09-46.93 37.53-74.65 51.39-23.82 11.91-47.99 20.52-70 37.28-10.99 8.4-20.77 10.42-25.59 23.85l-60.25 56.71c-52.03 32.57-54.02 123.77-56.71 177.22-2.83 56.57 2.74 113.99 2.77 170.13 0 55.65-33.03 112.36-17.05 166.69 21.09 71.63 78.58 51.25 127.7 82.3 92.58 58.55 107.71 219.04 230.38 222.41 51 1.38 117.71-6.52 160.28-35.44 24.03-16.31 38.14-42.82 63.02-57.59 26.44-15.7 58.56-16.91 88.61-16.84 94.84.25 243.04-19.71 304.04-107.11 33.46-47.99 31.08-109.38 17.72-162.19-14.04-55.36 2.87-103.99 28.24-153.29 21.19-41.15 68.16-108.92 37.21-152.48zM634.99 896.17c-129.72 0-234.88-105.16-234.88-234.88s105.16-234.88 234.88-234.88c129.73 0 234.89 105.16 234.89 234.88S764.72 896.17 634.99 896.17z" class="st1"/>
  <path fill="#e3a0c7" stroke="#2c0043" stroke-miterlimit="10" stroke-width="9.978" d="M1138.11 474.33c-36.29-28.92-101.09-.78-124.05-53.87-10.81-24.99-2.37-58.2-14.78-85.24-10.71-23.32-28.78-47.28-45.09-67.27-37.96-46.39-103-86.59-153.4-42.67-53.41 46.5-107.82 82.87-183.53 56-53.13-18.86-92.79-66.6-148.86-77.98-64.32-13.04-113.63 16.3-138.23 75.21-56.71 136-145.32 23.85-198.48 171.4-53.16 147.58 69.08 267.42 39.87 317.89-31.47 54.3-45.83 103.28-10.56 162.86 43.84 74.04 111.4.74 165.62 48.84 24.92 22.12 42.78 49.9 54.05 82.3 9.61 27.68 7.23 58.02 28.25 81.52 38.32 42.78 116.86 37.64 165.8 16.84 53.59-22.75 73.69-96.44 131.14-108.28 59.73-12.3 124.02 31.05 188.06 20.56 69.79-11.45 149.43-56.81 177.89-124.05 28.85-68.26-5.21-106.76-14.28-170.13-9.43-66 51.18-98.14 79.85-148.79 28.02-49.45 52.76-113.67.73-155.14zM634.99 896.17c-129.72 0-234.88-105.16-234.88-234.88s105.16-234.88 234.88-234.88c129.73 0 234.89 105.16 234.89 234.88S764.72 896.17 634.99 896.17z"/>
  <path d="M900.07 631.09c0-129.72-105.16-234.88-234.88-234.88-72.55 0-137.4 32.91-180.48 84.6 40.73-33.95 93.11-54.4 150.29-54.4 129.73 0 234.89 105.16 234.89 234.88 0 57.17-20.45 109.56-54.4 150.28 51.67-43.08 84.58-107.93 84.58-180.48zM360.37 248.31c4.53-10.85 9.91-20.69 16.06-29.46-19.69 13.38-35.39 33.63-46.26 59.65-5.59 13.4-11.49 24.37-17.63 33.44 17.25-10.89 33.55-29.39 47.83-63.63zM924.14 1042.23c-64.05 10.49-128.34-32.85-188.06-20.56-26.94 5.55-45.67 24.71-63.49 45.83 9.8-7.41 20.64-13.03 33.3-15.64 59.73-12.3 124.02 31.05 188.06 20.56 55.75-9.15 117.75-39.95 154.96-86.24-36.05 29.47-82.23 49.08-124.77 56.05zM604.93 1129.96c-48.95 20.81-127.48 25.94-165.8-16.84-21.02-23.5-18.64-53.84-28.25-81.52-11.27-32.4-29.13-60.18-54.05-82.3-54.22-48.1-121.78 25.2-165.63-48.84-35.26-59.58-20.91-108.56 10.56-162.86 29.21-50.47-93.04-170.3-39.87-317.89 6.57-18.22 13.67-32.46 21.19-43.72-18.91 11.76-36.53 32.7-51.39 73.92-53.16 147.58 69.08 267.42 39.87 317.89-31.47 54.3-45.83 103.28-10.56 162.86 43.84 74.04 111.4.74 165.62 48.84 24.92 22.12 42.78 49.9 54.05 82.3 9.61 27.68 7.23 58.02 28.25 81.52 38.32 42.78 116.86 37.64 165.8 16.84 20.7-8.79 36.41-25.19 51.2-42.68-6.45 4.95-13.37 9.24-20.99 12.48z" class="st3"/>
  <path d="M1265.88 661.29c0 348.44-282.44 630.89-630.89 630.89-348.44 0-630.89-282.45-630.89-630.89 0-20.24.96-40.23 2.84-59.97 75.07 48.7 68.55 185.19 81.45 269.08 9 58.55 23.61 108.88 67.94 153.12 35.48 35.37 80.17 62.03 117.92 94.99 48.52 42.32 100.59 78.68 158.71 106.33 54.73 26.01 117.53 17.65 177.22 17.72 147.55.14 301.3-61.57 411.14-159.49 91.13-81.27 153.89-204.72 159.49-322.53 2.66-56.28 19.53-111.4 24.99-166.41 5.7-57.49-12.51-105.87-28.71-155.95-5.95-18.36-18.36-59.51-6.2-78.33 3.58-5.53 7.41-9.67 11.41-12.62 53.17 92.47 83.58 199.72 83.58 314.06z" class="st1"/>
  <path fill="#fabfb1" d="M1138.73 304.91c-20.49-30.1-46.53-56.22-73.59-80.43-54.52-48.76-113.02-98.74-179.19-130.59-169.98-81.81-382.34-76.33-545.35 18.93-81.16 47.42-159.45 112.56-212.69 190.64-27.15 39.82-49.57 82.91-65.57 128.42-12.33 35.05-17.34 74.16-34.66 107.3l4.78 1.6c-17.04 40.05 16.8 58.84 36.33 18.54 12.09-25.02 14.04-51.32 19.6-78.79 11.52-56.89 16.3-103.85 65.46-144.43 43.17-35.69 93.25-46.71 133.98-89.56 36.29-38.24 65.22-77.59 116.68-95.73 119.02-41.93 211.59 63.48 329.73 46.96 59.4-8.3 117.07-46.93 174.49-22.93 49.94 20.88 73.44 67.02 97.65 111.54 16.62 30.66 34.38 121.96 65.29 136.74 37.51 17.93 70.46-24.28 90.66-62.47-2.36-19.94-12.28-39.11-23.6-55.74z" opacity=".6"/>
  <path d="M634.99 352.26c-171.22 0-309.98 138.76-309.98 309.99 0 171.19 138.76 309.99 309.98 309.99 171.23 0 309.99-138.79 309.99-309.99 0-171.23-138.76-309.99-309.99-309.99zm0 502.12c-106.65 0-193.09-86.45-193.09-193.09 0-106.65 86.44-193.09 193.09-193.09s193.1 86.45 193.1 193.09c0 106.65-86.45 193.09-193.1 193.09z" class="st3"/>
  <path d="M825.7 316.28c-.51 1.17-.89 2.41-1.13 3.68-.61 3.08-.47 6.35.34 9.46.02.07.05.14.07.21.32 1.18.73 2.34 1.24 3.46.04.09.09.17.13.26 1.91 4.02 5.03 7.43 9.18 9.29 19.41 8.7 40.39 10.84 61.15 6.22 6.48-1.44 11.5-6.56 13.84-12.59.71-1.81 1.17-3.7 1.36-5.6.19-1.9.1-3.81-.28-5.65-2.06-9.87-9.95-15.04-17.75-13.37-16.32 3.63-32.82 1.95-48.08-4.89-7.3-3.21-16.08.27-20.07 9.52z" class="st5"/>
  <path d="M885.31 303.09c7.79-1.68 15.69 3.5 17.74 13.37 2.06 9.82-4.55 21.55-14.93 23.84-20.77 4.62-41.74 2.48-61.15-6.22-9.7-4.34-13.82-17.16-9.82-26.36 3.99-9.25 12.77-12.74 20.08-9.52 15.26 6.84 31.75 8.52 48.08 4.89z" class="st6"/>
  <path d="M817.15 307.72c-3.99 9.2.13 22.02 9.82 26.36 19.41 8.7 40.39 10.84 61.15 6.22 10.37-2.3 16.99-14.03 14.93-23.84-29.1 12.25-59.87 9.12-85.9-8.74z" class="st7"/>
  <path d="M874.67 312.94c1.99-.16 3.65 1.59 3.72 4.01.07 2.42-1.61 4.61-3.74 4.78-13.3 1.09-26.51-.93-39.05-6.02-2.01-.81-3.07-3.43-2.38-5.73.68-2.31 2.73-3.47 4.6-2.72 11.84 4.8 24.3 6.71 36.85 5.68z" class="st8"/>
  <path d="M883.24 823.46c.49.93 1.09 1.8 1.77 2.61 1.65 1.96 3.81 3.56 6.22 4.63.06.03.12.04.17.07.91.41 1.87.73 2.84.98.08.02.16.03.24.05 3.54.84 7.32.6 10.64-1.1 15.5-7.93 27.61-20.23 35.31-35.85 2.4-4.87 1.7-10.7-.94-15.29-.8-1.38-1.77-2.64-2.88-3.74a15.29 15.29 0 00-3.75-2.72c-7.35-3.74-14.7-1.36-17.62 4.48-6.05 12.28-15.58 21.96-27.77 28.19-5.81 3-8.08 10.39-4.23 17.69z" class="st5"/>
  <path fill="#ffde17" stroke="#2c0043" stroke-miterlimit="10" stroke-width="6.999" d="M905.38 778.64c2.92-5.83 10.28-8.22 17.62-4.47h0c7.32 3.72 11.42 13.95 7.57 21.75-7.7 15.62-19.81 27.93-35.31 35.85-7.74 3.96-18.03.03-21.87-7.24h0c-3.86-7.29-1.58-14.69 4.22-17.7 12.19-6.23 21.72-15.9 27.77-28.19z"/>
  <path d="M873.4 824.53c3.82 7.26 14.11 11.21 21.86 7.24 15.51-7.93 27.61-20.23 35.31-35.85 3.85-7.8-.25-18.03-7.57-21.75-7.09 24.85-24.86 42.89-49.6 50.36z" class="st7"/>
  <path d="M906.21 790.48c.91-1.35 2.89-1.52 4.47-.33 1.58 1.2 2.12 3.39 1.14 4.84-6.12 9.04-14.18 16.44-23.85 21.84-1.54.87-3.76.2-4.88-1.41-1.12-1.62-.82-3.52.63-4.33 9.1-5.09 16.72-12.07 22.49-20.61z" class="st8"/>
  <path d="M414.76 1029.87c-.51 1.18-.89 2.41-1.14 3.68-.61 3.08-.47 6.35.34 9.46.02.07.05.14.07.21.32 1.18.73 2.34 1.24 3.46.04.09.09.17.13.26 1.91 4.02 5.03 7.43 9.18 9.29 19.41 8.7 40.39 10.84 61.15 6.22 6.48-1.44 11.5-6.56 13.85-12.59.71-1.81 1.17-3.7 1.36-5.6.19-1.9.11-3.81-.27-5.65-2.06-9.87-9.95-15.04-17.75-13.37-16.33 3.63-32.82 1.96-48.08-4.89-7.31-3.22-16.09.26-20.08 9.52z" class="st5"/>
  <path d="M474.37 1016.67c7.79-1.68 15.69 3.5 17.74 13.37 2.06 9.82-4.56 21.55-14.93 23.84-20.77 4.62-41.74 2.49-61.15-6.22-9.7-4.34-13.82-17.15-9.82-26.36 3.99-9.25 12.77-12.74 20.07-9.52 15.27 6.84 31.76 8.52 48.09 4.89z" class="st6"/>
  <path d="M406.21 1021.3c-3.99 9.2.12 22.02 9.82 26.36 19.41 8.71 40.39 10.84 61.15 6.22 10.37-2.3 16.99-14.02 14.93-23.84-29.1 12.25-59.87 9.12-85.9-8.74z" class="st7"/>
  <path d="M463.73 1026.52c1.99-.16 3.65 1.58 3.72 4 .07 2.42-1.61 4.61-3.74 4.78-13.3 1.09-26.51-.94-39.05-6.02-2.01-.81-3.07-3.43-2.38-5.73.68-2.31 2.73-3.48 4.6-2.72 11.84 4.81 24.3 6.72 36.85 5.69z" class="st8"/>
  <path d="M428.3 231.08c-1.25.3-2.46.76-3.61 1.33-2.82 1.38-5.34 3.48-7.32 6.01l-.12.18c-.75.97-1.43 2-2 3.08l-.12.27c-2.04 3.95-2.87 8.5-1.83 12.93 4.85 20.71 15.87 38.69 32.13 52.4 5.07 4.28 12.18 5.17 18.41 3.38 1.87-.54 3.65-1.32 5.28-2.31 1.63-1 3.09-2.22 4.32-3.64 6.6-7.61 5.94-17.03-.12-22.22-12.79-10.78-21.45-24.92-25.26-41.21-1.89-7.76-9.99-12.63-19.76-10.2z" class="st5"/>
  <path d="M474.93 270.49c6.06 5.19 6.72 14.6.12 22.21-.01 0-.01 0 0 0-6.56 7.59-19.9 9.44-28.02 2.58-16.26-13.71-27.28-31.69-32.12-52.4-2.43-10.35 5.27-21.39 15.01-23.8 9.77-2.43 17.87 2.44 19.74 10.19 3.82 16.3 12.47 30.44 25.27 41.22z" class="st6"/>
  <path d="M429.92 219.09c-9.73 2.4-17.43 13.45-15 23.8 4.84 20.71 15.86 38.69 32.12 52.4 8.12 6.86 21.45 5.01 28.01-2.58-27.38-15.72-43.55-42.09-45.13-73.62z" class="st7"/>
  <path d="M460.64 268.01c1.34 1.48.96 3.87-.93 5.39-1.88 1.52-4.64 1.51-6.07-.07-8.92-9.92-15.33-21.65-18.89-34.7-.57-2.09.87-4.52 3.11-5.37 2.25-.86 4.42.07 4.96 2.01 3.36 12.31 9.4 23.38 17.82 32.74z" class="st8"/>
  <g>
    <path d="M350.54 804.17c7.64-2.31 12.02-10.68 9.02-20.3-2.96-9.58-14.44-16.62-24.63-13.59-10.2 3.02-19.62 7.55-28.08 13.45-6.36 4.42-12.16 9.62-17.36 15.53-1.73 1.97-3.4 4.02-4.99 6.15-5.17 6.91-4.41 16.92.33 23.71 1.09 1.56 2.4 2.96 3.89 4.11 7.98 6.14 17.35 4.94 22.17-1.42 10.01-13.41 23.61-22.88 39.65-27.64z" class="st5"/>
    <path fill="#3bbfbf" stroke="#2c0043" stroke-miterlimit="10" stroke-width="8.549" d="M322.94 832.72c-4.82 6.36-14.18 7.57-22.17 1.42h0c-7.95-6.1-10.58-19.31-4.22-27.81 12.74-17.03 30.04-29.09 50.44-35.13 10.19-3.03 21.67 4.01 24.63 13.59h0c3 9.62-1.38 17.99-9.02 20.3-16.03 4.76-29.63 14.23-39.66 27.63z"/>
    <path d="M371.63 784.79c-2.96-9.58-14.44-16.62-24.63-13.59-20.39 6.04-37.69 18.1-50.44 35.13-6.37 8.5-3.74 21.71 4.22 27.81 14.09-28.25 39.46-45.93 70.85-49.35z" class="st11"/>
    <path d="M324.6 818.32c-1.4 1.42-3.81 1.18-5.43-.61-1.63-1.79-1.79-4.54-.28-6.06 9.38-9.49 20.72-16.57 33.54-20.88 2.06-.7 4.56.6 5.54 2.79.99 2.19.19 4.42-1.72 5.07-12.1 4.05-22.8 10.74-31.65 19.69z" class="st8"/>
  </g>
  <g>
    <path d="M958.79 502.65c5.7 2.84 12.83.38 16.36-6.84 3.52-7.19.72-17.57-6.85-21.39-7.57-3.83-15.53-6.37-23.67-7.58a77.48 77.48 0 00-18.59-.5c-2.08.19-4.17.47-6.26.83-6.79 1.18-11.84 7.41-12.81 13.95-.22 1.51-.23 3.03.01 4.51 1.27 7.94 7.37 12.38 13.65 11.33 13.15-2.29 26.24-.33 38.16 5.69z" class="st5"/>
    <path d="M927.12 504.11c-6.28 1.05-12.38-3.38-13.65-11.32-1.27-7.9 4.44-17.01 12.8-18.46 16.73-2.91 33.38-.42 48.53 7.25 7.57 3.82 10.38 14.19 6.85 21.39-3.54 7.23-10.67 9.69-16.36 6.84-11.92-6.04-25.01-7.99-38.17-5.7z" class="st12"/>
    <path d="M981.65 502.96c3.52-7.18.72-17.57-6.85-21.39-15.15-7.67-31.8-10.15-48.53-7.25-8.36 1.45-14.07 10.56-12.8 18.46 23.66-8.68 48.09-5.04 68.18 10.18z" class="st11"/>
    <path d="M935.97 496.65c-1.59.05-2.85-1.4-2.82-3.33.04-1.93 1.45-3.62 3.16-3.68 10.65-.37 21.11 1.74 30.92 6.25 1.57.72 2.32 2.85 1.69 4.66-.63 1.82-2.31 2.67-3.78 2-9.25-4.26-19.12-6.25-29.17-5.9z" class="st8"/>
  </g>
  <g>
    <path d="M306.81 668.21c5.7 2.84 12.83.38 16.37-6.84 3.52-7.19.72-17.57-6.85-21.39-7.58-3.83-15.53-6.37-23.67-7.58a76.97 76.97 0 00-18.59-.49c-2.08.19-4.17.47-6.27.84-6.79 1.18-11.84 7.41-12.81 13.94-.22 1.51-.23 3.03.01 4.52 1.27 7.95 7.37 12.38 13.65 11.32 13.15-2.3 26.24-.34 38.16 5.68z" class="st5"/>
    <path d="M275.14 669.67c-6.28 1.05-12.38-3.38-13.65-11.32-1.27-7.91 4.44-17.01 12.8-18.46 16.73-2.91 33.38-.42 48.53 7.24 7.57 3.82 10.38 14.2 6.85 21.39-3.54 7.23-10.67 9.68-16.36 6.84-11.91-6.03-25.01-7.98-38.17-5.69z" class="st12"/>
    <path d="M329.68 668.52c3.52-7.19.72-17.57-6.85-21.39-15.15-7.67-31.81-10.15-48.53-7.24-8.36 1.45-14.07 10.55-12.8 18.46 23.65-8.69 48.08-5.04 68.18 10.17z" class="st11"/>
    <path d="M284 662.21c-1.59.06-2.86-1.4-2.83-3.33.04-1.94 1.46-3.62 3.16-3.68 10.64-.37 21.11 1.74 30.92 6.25 1.57.72 2.32 2.85 1.69 4.66-.63 1.81-2.31 2.67-3.78 1.99-9.25-4.25-19.12-6.24-29.16-5.89z" class="st8"/>
  </g>
  <g>
    <path d="M686.39 972.3c5.7 2.84 12.83.38 16.36-6.84 3.53-7.19.73-17.57-6.85-21.39-7.57-3.83-15.53-6.37-23.67-7.59a76.956 76.956 0 00-18.59-.49c-2.09.19-4.18.47-6.27.83-6.79 1.18-11.84 7.41-12.81 13.94-.22 1.51-.23 3.03.01 4.52 1.27 7.95 7.37 12.38 13.65 11.32 13.17-2.29 26.26-.33 38.17 5.7z" class="st5"/>
    <path d="M654.73 973.75c-6.29 1.05-12.38-3.38-13.65-11.32-1.28-7.91 4.44-17.01 12.79-18.46 16.73-2.91 33.38-.42 48.53 7.24 7.57 3.82 10.38 14.2 6.85 21.39-3.53 7.23-10.66 9.68-16.36 6.84-11.91-6.02-25.01-7.97-38.16-5.69z" class="st12"/>
    <path d="M709.25 972.6c3.53-7.19.72-17.57-6.85-21.39-15.15-7.66-31.8-10.15-48.53-7.24-8.36 1.45-14.07 10.55-12.79 18.46 23.66-8.69 48.08-5.04 68.17 10.17z" class="st11"/>
    <path d="M663.57 966.29c-1.59.06-2.85-1.4-2.82-3.33.04-1.93 1.45-3.62 3.16-3.68 10.64-.37 21.11 1.73 30.91 6.25 1.58.72 2.32 2.85 1.69 4.66-.62 1.81-2.3 2.67-3.77 2-9.25-4.26-19.12-6.25-29.17-5.9z" class="st8"/>
  </g>
  <g>
    <path d="M548.22 380.8c-.38 6.36 4.68 11.96 12.71 12.37 7.99.43 16.44-6.22 16.99-14.69.56-8.47-.23-16.78-2.3-24.75-1.55-5.98-3.84-11.77-6.83-17.3-1-1.84-2.07-3.66-3.23-5.44-3.75-5.79-11.45-7.98-17.85-6.31-1.47.38-2.88.98-4.15 1.78-6.81 4.29-8.5 11.63-5.07 17 7.26 11.2 10.6 24.01 9.73 37.34z" class="st5"/>
    <path d="M534.46 352.24c-3.43-5.37-1.74-12.72 5.07-17 6.77-4.27 17.38-2.58 21.99 4.54 9.23 14.25 13.48 30.54 12.36 47.49-.55 8.46-8.99 15.12-16.99 14.69-8.04-.42-13.09-6.02-12.71-12.37.88-13.34-2.46-26.14-9.72-37.35z" class="st12"/>
    <path d="M556.9 401.96c7.99.43 16.44-6.22 16.99-14.69 1.11-16.95-3.13-33.24-12.36-47.49-4.6-7.12-15.22-8.81-21.99-4.54 17.25 18.36 23.48 42.26 17.36 66.72z" class="st11"/>
    <path d="M544.8 357.46c-.68-1.44.17-3.18 1.96-3.9 1.79-.72 3.9-.08 4.62 1.47 4.51 9.65 6.68 20.1 6.37 30.89-.05 1.73-1.72 3.25-3.63 3.38-1.92.14-3.36-1.08-3.32-2.69.3-10.19-1.75-20.05-6-29.15z" class="st8"/>
  </g>
  <g>
    <path d="M1002.79 624.23c-2.77-7.48-11.39-11.35-20.81-7.78-2.35.88-4.5 2.29-6.36 4.06-.24.23-.46.49-.7.73-.21.22-.43.43-.63.66-4.68 5.33-6.89 13.09-4.4 19.95 3.63 10 8.72 19.13 15.11 27.23a96.891 96.891 0 0016.55 16.39c2.07 1.61 4.22 3.15 6.44 4.61 2.22 1.46 4.7 2.34 7.25 2.72 5.75.84 11.9-.91 16.39-4.46 1-.79 1.92-1.67 2.73-2.63.41-.48.79-.98 1.14-1.5 5.66-8.34 3.88-17.62-2.75-22.04-13.97-9.2-24.25-22.22-29.96-37.94z" class="st5"/>
    <path d="M1032.95 650.06c6.64 4.43 8.41 13.7 2.76 22.05-5.61 8.31-18.64 11.72-27.51 5.88-17.77-11.69-30.84-28.24-38.1-48.23-3.64-9.98 2.7-21.86 12.08-25.4 9.42-3.57 18.04.3 20.81 7.78 5.7 15.71 15.98 28.72 29.96 37.92z" class="st13"/>
    <path d="M982.17 604.35c-9.38 3.54-15.72 15.42-12.08 25.4 7.25 19.99 20.33 36.54 38.1 48.23 8.87 5.84 21.9 2.43 27.51-5.88-29.05-12.36-48.22-36.63-53.53-67.75z" class="st14"/>
    <path d="M1018.47 649.28c1.5 1.31 1.41 3.72-.28 5.46-1.69 1.73-4.42 2.05-6.04.65-10.04-8.79-17.78-19.69-22.87-32.22-.81-2.01.33-4.59 2.46-5.7 2.13-1.12 4.4-.46 5.16 1.42 4.79 11.82 12.1 22.1 21.57 30.39z" class="st8"/>
  </g>
  <g>
    <path d="M443.55 889.35c-2.77-7.48-11.39-11.35-20.81-7.78-2.35.88-4.5 2.29-6.36 4.06-.24.23-.47.49-.7.73-.21.22-.43.43-.63.66-4.68 5.33-6.89 13.09-4.4 19.95 3.63 10 8.72 19.13 15.11 27.23a96.891 96.891 0 0016.55 16.39c2.07 1.61 4.22 3.15 6.44 4.61 2.22 1.46 4.69 2.34 7.25 2.72 5.75.84 11.9-.91 16.39-4.46 1-.79 1.92-1.67 2.73-2.63.41-.48.79-.98 1.14-1.5 5.66-8.34 3.88-17.62-2.76-22.04-13.96-9.21-24.24-22.22-29.95-37.94z" class="st5"/>
    <path d="M473.71 915.17c6.63 4.43 8.41 13.7 2.75 22.05-5.61 8.31-18.64 11.72-27.5 5.88-17.77-11.69-30.85-28.24-38.11-48.23-3.63-9.98 2.7-21.86 12.09-25.41 9.42-3.57 18.04.3 20.81 7.79 5.7 15.72 15.98 28.73 29.96 37.92z" class="st13"/>
    <path d="M422.93 869.46c-9.38 3.54-15.72 15.42-12.09 25.41 7.26 19.99 20.34 36.54 38.11 48.23 8.87 5.84 21.9 2.43 27.5-5.88-29.04-12.36-48.21-36.63-53.52-67.76z" class="st14"/>
    <path d="M459.23 914.39c1.5 1.31 1.41 3.72-.28 5.46-1.69 1.73-4.42 2.05-6.04.65-10.04-8.79-17.78-19.69-22.86-32.22-.81-2.01.33-4.59 2.46-5.7 2.13-1.12 4.4-.46 5.16 1.42 4.78 11.82 12.09 22.1 21.56 30.39z" class="st8"/>
  </g>
  <g>
    <path d="M191.46 536.78c-1.86-5.04-7.66-7.65-14.01-5.24-1.58.6-3.03 1.54-4.29 2.73-.17.16-.31.33-.47.49-.15.15-.29.29-.43.44-3.15 3.59-4.64 8.82-2.96 13.44 2.44 6.73 5.87 12.89 10.18 18.34 3.23 4.09 6.96 7.79 11.15 11.04 1.4 1.09 2.85 2.12 4.34 3.1 1.5.99 3.16 1.58 4.89 1.83 3.87.57 8.02-.61 11.04-3 .67-.53 1.29-1.13 1.83-1.77.28-.32.53-.66.77-1.01 3.81-5.62 2.61-11.87-1.85-14.85-9.42-6.18-16.34-14.95-20.19-25.54z" class="st5"/>
    <path d="M211.78 554.18c4.47 2.98 5.66 9.23 1.86 14.85-3.78 5.6-12.56 7.9-18.53 3.96-11.97-7.87-20.77-19.02-25.66-32.48-2.45-6.73 1.82-14.73 8.14-17.11 6.35-2.4 12.15.2 14.01 5.24 3.84 10.59 10.76 19.35 20.18 25.54z" class="st15"/>
    <path d="M177.58 523.39c-6.32 2.38-10.59 10.39-8.14 17.11 4.89 13.46 13.69 24.61 25.66 32.48 5.97 3.94 14.75 1.64 18.53-3.96-19.57-8.32-32.48-24.67-36.05-45.63z" class="st14"/>
    <path d="M202.02 553.65c1.01.89.95 2.51-.19 3.68-1.14 1.17-2.98 1.38-4.07.44-6.76-5.92-11.98-13.26-15.4-21.7-.55-1.36.21-3.09 1.65-3.84 1.43-.75 2.96-.31 3.47.95 3.24 7.96 8.17 14.89 14.54 20.47z" class="st8"/>
  </g>
  <g>
    <path d="M1008.48 886.96c-1.86-5.04-7.67-7.65-14.02-5.24-1.58.6-3.03 1.54-4.28 2.73-.17.16-.32.33-.48.49-.14.15-.29.29-.42.45-3.15 3.59-4.64 8.82-2.96 13.44 2.44 6.73 5.86 12.88 10.18 18.34 3.23 4.09 6.96 7.78 11.15 11.04 1.4 1.09 2.84 2.12 4.34 3.11 1.49.98 3.16 1.58 4.88 1.83 3.88.56 8.02-.61 11.04-3 .67-.53 1.29-1.13 1.84-1.77.27-.32.53-.66.76-1.01 3.81-5.62 2.62-11.87-1.85-14.85-9.41-6.21-16.33-14.97-20.18-25.56z" class="st5"/>
    <path d="M1028.79 904.36c4.47 2.98 5.67 9.23 1.86 14.85-3.78 5.6-12.55 7.89-18.52 3.96-11.97-7.87-20.77-19.02-25.66-32.48-2.45-6.73 1.81-14.73 8.13-17.11 6.35-2.4 12.16.2 14.02 5.24 3.84 10.58 10.76 19.34 20.17 25.54z" class="st15"/>
    <path d="M994.59 873.57c-6.31 2.38-10.59 10.39-8.13 17.11 4.89 13.46 13.69 24.61 25.66 32.48 5.97 3.94 14.74 1.64 18.52-3.96-19.56-8.32-32.48-24.67-36.05-45.63z" class="st14"/>
    <path d="M1019.04 903.83c1.01.89.95 2.51-.19 3.68-1.14 1.17-2.98 1.38-4.06.43-6.76-5.92-11.98-13.26-15.4-21.7-.55-1.35.22-3.09 1.65-3.84s2.96-.31 3.48.96c3.22 7.96 8.14 14.89 14.52 20.47z" class="st8"/>
  </g>
  <g>
    <path d="M324.33 455.52c-5.27-15.88-5.27-32.46 0-48.34 2.46-7.59-1.9-15.97-11.51-19.01-1.2-.38-2.43-.63-3.69-.75-8.81-.87-18.62 4.37-21.54 13.2-3.34 10.09-5.02 20.41-5.02 30.73 0 7.74.94 15.48 2.82 23.12.63 2.55 1.36 5.09 2.2 7.61 2.71 8.19 11.36 13.3 19.64 13.29 1.9-.01 3.79-.28 5.59-.85 9.61-3.03 13.97-11.41 11.51-19z" class="st5"/>
    <path d="M331.99 446.15c2.46 7.59-1.9 15.97-11.51 19.01-9.55 3.04-21.9-2.36-25.23-12.44-6.69-20.19-6.69-41.28 0-61.47 3.34-10.09 15.67-15.48 25.23-12.45 9.6 3.04 13.97 11.42 11.51 19.01-5.27 15.88-5.27 32.46 0 48.34z" class="st16"/>
    <path d="M320.48 378.8c-9.56-3.04-21.9 2.36-25.23 12.45-6.69 20.19-6.69 41.28 0 61.47 3.34 10.08 15.68 15.48 25.23 12.44-15.13-27.71-15.13-58.65 0-86.36z" class="st17"/>
    <path d="M321.11 436.56c.35 1.96-1.21 3.8-3.61 4.11-2.4.31-4.76-1.14-5.14-3.24-2.43-13.11-1.75-26.47 2.04-39.45.6-2.08 3.1-3.4 5.46-2.96 2.36.44 3.73 2.37 3.17 4.31-3.57 12.25-4.22 24.86-1.92 37.23z" class="st8"/>
  </g>
  <g>
    <path d="M761.35 407.84c-4.04-12.18-4.04-24.91 0-37.09 1.89-5.82-1.46-12.26-8.83-14.59-.91-.29-1.86-.48-2.83-.58-6.76-.67-14.29 3.35-16.53 10.13-2.57 7.75-3.85 15.67-3.85 23.58 0 5.94.72 11.88 2.17 17.75.48 1.96 1.05 3.9 1.69 5.84 2.08 6.29 8.72 10.2 15.07 10.2 1.46-.01 2.91-.21 4.29-.65 7.37-2.34 10.71-8.77 8.82-14.59z" class="st5"/>
    <path fill="#f285b5" stroke="#2c0043" stroke-miterlimit="10" stroke-width="6.56" d="M767.22 400.64c1.89 5.82-1.45 12.25-8.83 14.58h0c-7.33 2.33-16.8-1.81-19.36-9.55-5.14-15.49-5.14-31.67 0-47.17 2.56-7.74 12.02-11.88 19.36-9.55h0c7.37 2.33 10.72 8.76 8.83 14.59-4.04 12.2-4.03 24.92 0 37.1z"/>
    <path d="M758.4 348.96c-7.34-2.33-16.8 1.8-19.36 9.55-5.14 15.49-5.14 31.67 0 47.17 2.56 7.74 12.03 11.88 19.36 9.55-11.62-21.27-11.62-45 0-66.27z" class="st17"/>
    <path d="M758.88 393.29c.27 1.51-.93 2.91-2.77 3.15-1.85.24-3.65-.87-3.95-2.48-1.86-10.06-1.34-20.31 1.56-30.28.46-1.6 2.38-2.61 4.2-2.27 1.81.34 2.87 1.82 2.43 3.31-2.74 9.4-3.23 19.07-1.47 28.57z" class="st8"/>
  </g>
  <g>
    <path d="M877.66 965.72c13.53-9.84 29.32-14.89 46.04-14.7 7.98.04 14.64-6.66 14.61-16.74 0-1.25-.15-2.51-.41-3.75-1.85-8.66-9.82-16.41-19.12-16.51-10.63-.12-20.97 1.42-30.8 4.56-7.37 2.35-14.45 5.6-21.17 9.72a96.758 96.758 0 00-6.58 4.41c-6.98 5.07-9.21 14.87-6.69 22.75.58 1.82 1.42 3.53 2.51 5.07 5.82 8.24 15.14 9.84 21.61 5.19z" class="st5"/>
    <path d="M888.92 970.16c-6.48 4.65-15.79 3.05-21.6-5.18-5.8-8.18-4.42-21.57 4.18-27.82 17.2-12.52 37.28-18.93 58.55-18.69 10.63.11 19.52 10.22 19.53 20.25.03 10.08-6.63 16.78-14.61 16.74-16.73-.19-32.52 4.86-46.05 14.7z" class="st16"/>
    <path d="M949.58 938.72c-.01-10.03-8.9-20.14-19.53-20.25-21.27-.24-41.35 6.17-58.55 18.69-8.6 6.24-9.98 19.64-4.18 27.82 21.79-22.84 51.26-32.25 82.26-26.26z" class="st17"/>
    <path d="M894.74 956.88c-1.76.94-3.98.01-5-2.19-1.03-2.19-.37-4.87 1.52-5.88 11.76-6.3 24.69-9.72 38.21-10.06 2.17-.06 4.18 1.92 4.47 4.31.3 2.38-1.11 4.27-3.14 4.33-12.76.32-24.96 3.55-36.06 9.49z" class="st8"/>
  </g>
  <g>
    <path d="M203.8 904.48c12.35 2.24 23.27 8.19 31.84 17.36 4.1 4.35 11.19 4.48 16.64-.75.69-.65 1.29-1.38 1.82-2.16 3.74-5.49 3.81-13.83-.95-18.92-5.45-5.83-11.64-10.64-18.44-14.34a71.99 71.99 0 00-16.24-6.44c-1.9-.5-3.83-.93-5.8-1.29-6.37-1.16-12.83 2.71-15.8 8.16-.69 1.26-1.18 2.6-1.45 3.98-1.45 7.43 2.5 13.3 8.38 14.4z" class="st5"/>
    <path fill="#f285b5" stroke="#2c0043" stroke-miterlimit="10" stroke-width="6.412" d="M207.23 912.89c-5.88-1.11-9.83-6.99-8.38-14.41h0c1.43-7.38 9.41-13.57 17.25-12.14 15.7 2.84 29.59 10.41 40.48 22.07 5.45 5.82 4.57 15.88-.86 21.08h0c-5.45 5.23-12.54 5.1-16.65.75-8.58-9.16-19.49-15.12-31.84-17.35z"/>
    <path d="M255.71 929.5c5.43-5.2 6.31-15.26.86-21.08-10.89-11.66-24.78-19.23-40.48-22.07-7.84-1.43-15.83 4.76-17.25 12.14 23.69-.02 44.05 11.09 56.87 31.01z" class="st17"/>
    <path d="M217.45 909.17c-1.42-.47-2.06-2.16-1.41-3.85.65-1.69 2.45-2.72 3.97-2.22 9.51 3.11 18.06 8.35 25.25 15.5 1.15 1.14 1.12 3.26-.02 4.66-1.14 1.4-2.89 1.61-3.97.54-6.78-6.75-14.85-11.7-23.82-14.63z" class="st8"/>
  </g>
  <g>
    <path fill="#d167a8" stroke="#2c0043" stroke-linecap="round" stroke-miterlimit="10" stroke-width="11.762" d="M1696.33 728.83c0 44.36-168.45 80.33-376.26 80.33-207.8 0-376.26-35.97-376.26-80.33 0-44.37 168.46-80.33 376.26-80.33 207.81 0 376.26 35.96 376.26 80.33z"/>
    <path fill="#847bb9" stroke="#2c0043" stroke-miterlimit="10" stroke-width="11.762" d="M1590.99 411.87c-28.48 87.18-161.47 93.9-239.77 79.59l-282.49-79.13c-8.86-38.05-6.7-75.36 15.1-105.07 14.74-20.05 38.44-36.67 73.95-47.72 47.47-14.8 119 6.41 165.85-30.42 92.24-72.56 50.79-195.58 68.89-213.94 18.11-18.41 105.03 34.13 168.91 145.57 13.16 22.93 23.11 48.74 29.97 75.61 15.67 61.44 15.1 127.93-.41 175.51z"/>
    <path d="M1590.99 411.87c-28.48 87.18-161.47 93.9-239.77 79.59l-282.49-79.13c-8.86-38.05-6.7-75.36 15.1-105.07 5.31-1.16 10.98-1.23 16.6-.3 14.82 2.4 22.96 17.01 37.12 19.51 17.08 2.95 33.96-5.26 52.82-1.87 16.44 2.93 30.95 3 45.93 9.09 28.88 11.8 59.9 24.05 88.06 34.41 26.38 9.68 68.96 19.39 97.84 11.26 8.01-2.21 12.71-9.86 20.11-11.9 8.08-2.18 18.07.69 26.72.21 17.97-.98 34.08-8.06 50.3-15.06 29.97-12.89 42.9-31.94 52.56-63.16 3.03-9.88 10.16-33.29 19.5-53.09 15.68 61.44 15.11 127.93-.4 175.51z" class="st22"/>
    <path fill="#7accc6" stroke="#2c0043" stroke-miterlimit="10" stroke-width="11.762" d="M1653.33 554.4l-612.07 136.13c-57.68-21.8-77.52-94.19-76.23-150.21.6-26.6 7.74-51.81 19.65-74.64 33.42-64.41 104.76-109.36 174.81-109.12 109.87.45 128.92 52.86 201.75 65.97 92.47 16.69 148.77-11.78 212.23-15.16 77.07-4.1 109.53 43.05 93.09 110.17-2.92 11.69-7.33 24.08-13.23 36.86z"/>
    <path d="M1546.8 428.43c-46.1.96-99.21 15.24-127.22 17.47-64.18 5.09-132.09-8.96-189.66-37.43-41.85-20.69-86.07-32.31-115.4 14.49-3.55 5.65.54 13.56 7.34 13.58 18.27.04 36.76-4.02 54.83-.02 22.07 4.88 43.07 19.23 64.31 27.1 54.33 20.14 112.92 12.38 169.07 6.95 32.24-3.12 63.5-13.04 95.4-18.32 12.68-2.1 27.93-4.77 43.54-5.9 27.72-2.01 34.33-18.67-2.21-17.92z" class="st8"/>
    <path d="M1653.33 554.4l-612.07 136.13c-57.68-21.8-77.52-94.19-76.23-150.21.6-26.6 7.74-51.81 19.65-74.64 2.85.08 5.68.8 8.61 2.12 18.06 8.26 2.4 37.68 20.61 51.41 13.13 9.84 14.96-.58 27.69 1.82 13.71 2.56 10.56 11.18 19.89 16.63 12.7 7.43 48.32 9.38 61.84 1.69 4.76 6.45 33.28 10.44 42.6 11.87 18.88 2.96 33.21.22 51.65 4.83 35.22 8.85 60.65-5.88 95.21-5.7 15.89.15 31.46 6.45 46.54-1.35 7.07-3.63 9.08-12.27 16.28-15.47 5.28-2.32 15.68-.86 21.86-1.9 32.67-5.49 58.3-23.21 88.14-33.75 64.64-22.91 135.34-38.15 180.95 19.68-2.91 11.67-7.32 24.06-13.22 36.84z" class="st24"/>
    <path fill="#fedcc1" stroke="#2c0043" stroke-miterlimit="10" stroke-width="11.762" d="M1610.4 802.59c-351.76 142.32-631.18-25.22-631.18-25.22-26.69-9.24-27.37-54.82-26.05-79.35.29-5.66 1.07-11.09 2.27-16.15 20.97-89.99 172.43-96.44 238.18-84.6 122.82 22.03 187.93.54 273-39.36 90.13-42.33 189.45-96.47 235.97-12.47 13.95 25.25 21.46 50.5 23.32 75.03 6.16 76.78-63.03 158.9-115.51 182.12z"/>
    <path d="M1608.59 734.02c-72.16 32.52-150.38 44.06-229.07 45.71-83.37 1.75-169.29.73-252.01-10.2-38.18-5.04-84.34-10.81-117.58-31.94-22.43-14.25-38.01-34.13-54.83-53.92-.97 4.55-1.67 9.34-1.93 14.35-1.33 24.52-1.33 72.36 26.05 79.35 323.71 82.53 631.18 25.22 631.18 25.22 63.96-31.44 108.69-87.93 115.19-152.66-30.79 37.53-78.52 66.76-117 84.09zM1615.47 592.38c-4.19-1.25-6.12 5.25-1.94 6.49 4.19 1.25 6.12-5.24 1.94-6.49zM1658.69 604.19c-2.95-.88-4.32 3.69-1.37 4.57 2.95.87 4.32-3.69 1.37-4.57z" class="st26"/>
    <path d="M1610.34 643.06c-2.38-.29-4.69-.39-6.95-.4 1.35-1.59 1.27-4.5-1.35-5.28-3.46-1.03-5.3 3.46-3.16 5.47-12.09.97-22.94 5.67-34.29 11.62-18.46 9.66-36.36 19.26-56.67 24.58-2.13.56-1.54 3.28.4 3.58 32.43 4.97 55.77-20.28 84.15-30.76.01.47-.01.94.18 1.4.25.61.44 1.15.9 1.64.53.57 1.34.81 2.1.63.65-.15 1.12-.52 1.66-.88 1.62-1.13 2.08-3.24 1.24-4.76 3.79-1.07 7.67-1.89 11.7-2.24 2.93-.28 3.05-4.24.09-4.6zM1678.26 590.8c-44.41-31.71-98.58-7.98-143.56 10.44-66.12 27.09-129.39 53.09-200.01 65.55-3.3.59-2.54 5.5.62 5.65 83.41 4.05 157.91-56.29 235.88-78.4-1.24 5.95 8.23 8.72 10.27 2.87.54-.67.77-1.57.74-2.55l.03-.14c.31-1.23.4-2.25.34-3.11 30.35-7.02 61.3-7.61 93.58 4.33 2.88 1.08 4.37-3.03 2.11-4.64zM1651.32 626.45c-1.82-3.38-6.13-3.04-8.25-.27-.51.67-1.01 1.34-1.52 2.01-1.58 2.09.34 5.66 2.96 5.47l2.51-.17c3.49-.24 6.13-3.66 4.3-7.04zM1539.1 649.03c-4.41-4.03-9.85-1.99-11.54 3.52-2.16 7.07 8.23 10.39 11.05 4.12 2.13-1.94 2.89-5.44.49-7.64zM1632.72 660.04c-.74-.4-1.48-.79-2.22-1.16-2.24-1.1-4.45.1-4.75 2.57-.11.83-.18 1.67-.25 2.5-.33 3.61 4 5.86 6.97 4.25 2.96-1.61 3.44-6.45.25-8.16zM1714.23 588.93c-.37-.11-.55.47-.17.58.37.12.54-.47.17-.58zM1141.64 621.03c-39.44-7.66-84.14 4.09-119.71 23.31-1.09-4.07-6.92-5.04-8.97-.25-.2.46-.4.93-.6 1.39-.68 1.61-.33 2.97.49 4.03-.64.39-1.3.76-1.93 1.15-1.15.71-.22 2.45 1 1.84 1.01-.5 2-.94 3.01-1.42 2.65 1.2 6.22.7 6.84-2.78.03-.14.05-.27.07-.4 38.93-16.98 76.85-19.59 119.37-24.24 1.38-.16 2.05-2.31.43-2.63z" class="st26"/>
    <path d="M1035.17 628.98c-4.96-1.48-7.25 6.2-2.29 7.68 4.95 1.48 7.24-6.21 2.29-7.68zM1061.31 657.4c1.99-3.08-2.7-5.93-4.78-2.99-.49.68-1.08 1.16-1.81 1.55-.75.41-1.15 1-1.33 1.64-1.72-.37-3.24-.39-4.72.97-.98.9-1.41 2.35-1.09 3.64.57 2.26 2.16 3.01 4.19 3.7 3.33 1.12 5.53-1.97 5.32-4.69.13-.06.26-.05.4-.13 1.55-.94 2.84-2.15 3.82-3.69zM1163.98 643.4c-30.97-4.51-62.53-8-93.2-.82-1.5.35-1.22 2.57.29 2.63 2.2.08 4.42.23 6.62.35-2.12 1.95-2.23 6.13 1.38 7.2 4.39 1.31 6.72-4.2 4.22-6.89 26.79 1.8 53.85 5.56 80.58 2.87 3.43-.35 3.53-4.85.11-5.34zM1142.08 655.17c-6.66-1.99-9.74 8.35-3.08 10.33 6.67 2 9.75-8.34 3.08-10.33z" class="st26"/>
    <path d="M1680.31 545.79c-16.35-33.56-70.99-28.79-101.49-23.85-41.89 6.79-80.44 30.04-117.72 49.6-87.47 45.88-178.17 57.96-274.85 47.14-2.13-.23-3.13 3.17-1.24 4.16 36.77 18.98 78.61 17.57 119.34 14.47 42.27-3.21 85.14-11.06 125.94-23.14 42.17-12.49 82.01-31.9 124.34-43.93 20.78-5.9 40.85-10.12 62.44-10.58 20.67-.44 38.92 8.65 58.93.58 5.44-2.18 6.59-9.78 4.31-14.45z" class="st8"/>
    <path d="M1055.91 466.55c-3.92-.38-6.84 3.06-6.19 6.78.31 1.76 2.07 2.94 3.74 3.01h.12c.06.02.03.01.14.03.22.04.42.09.62.17 6.44 2.67 9.51-9.22 1.57-9.99zM1068.67 407.13c-5.48-1.64-8.01 6.86-2.53 8.5 5.48 1.64 8.02-6.87 2.53-8.5zM1040.63 475.81c-.98 1.07-1.69 2.03-2.17 3.41-.39 1.12.36 2.51 1.5 2.79 1.42.36 2.61.29 4.05.05 6.09-1.01.8-10.79-3.38-6.25zM1120.54 461.18c-5.07-1.51-7.41 6.35-2.35 7.87 5.07 1.51 7.42-6.35 2.35-7.87zM1389.91 516.64c-31.26 9.27-60.29 10.97-88.96 7.93-.44-1.23-1.38-2.29-3.02-2.78-2.3-.69-4.12.26-5.16 1.79-28.02-3.83-55.87-11.91-85.31-21.76-50.67-16.95-106.77-34.68-159.51-15.98-3.42 1.21-2.33 6.3 1.35 5.57 12.46-2.48 24.53-3.75 36.34-4.11-.36 1.73.29 3.65 2.46 4.29 3.08.92 5.01-1.91 4.67-4.34 20.56.04 40.38 2.83 60.05 7.28.35.7.96 1.29 1.92 1.57 1.15.34 2.09.05 2.81-.52 26.95 6.44 53.71 15.75 81.89 24.89 49.76 16.12 103.6 25.02 151.7-.65 1.69-.9.67-3.74-1.23-3.18z" class="st24"/>
    <path d="M1448.61 485.2c-44.46 2.24-87.53 8.6-132.25 6.21-42.96-2.3-84.75-11.82-125.61-24.71-49.39-15.6-115.32-36.8-164.59-10.53-3.76 2-.7 7.31 3.09 5.71 59.04-25.02 130.71 8.73 189.36 21.8 34.08 7.6 70.86 14.29 107.78 16.87.49.98 1.35 1.8 2.7 2.21 2.18.65 3.9-.24 4.9-1.69 3.49.19 6.98.29 10.46.4-.94 1.1-.89 3.12.93 3.65 2.27.68 3.5-2.05 2.37-3.53 15.73.36 31.38-.17 46.77-1.82-1.15 2.81-.42 6.42 3.33 7.54 5.61 1.68 8.69-4.96 6.06-8.71 15.39-2.13 30.48-5.4 45.05-10.2 1.64-.54 1.6-3.3-.35-3.2zM1476.68 470.94c-8.61-2.57-12.6 10.79-3.98 13.36 8.61 2.56 12.58-10.79 3.98-13.36zM1507.14 470.78l-.21-1.75c-.19-1.62-2.74-2.38-3.79-1.13-.38.45-.76.9-1.13 1.36-4.09 4.89 5.87 7.86 5.13 1.52zM1528.09 462.39c-4.19-1.25-6.12 5.24-1.93 6.49 4.18 1.25 6.12-5.25 1.93-6.49zM1638.37 463.06c-4.6-1.37-6.73 5.76-2.13 7.13 4.6 1.38 6.73-5.75 2.13-7.13zM1635.46 437.2c-4.01-1.19-5.87 5.02-1.86 6.22 4.01 1.19 5.87-5.02 1.86-6.22zM1646.37 457.6c-3.83-1.15-5.6 4.8-1.77 5.95 3.83 1.13 5.61-4.81 1.77-5.95z" class="st24"/>
    <path fill="#b5ceec" d="M1423.27 51.26c-2.73-3.52-9.17-1.46-7.58 3.38 9.37 28.33 17.58 56.56 11.21 86.51-5.74 27.01-25.49 53.74-43.83 73.62-17.75 19.24-39.78 33.44-63.08 44.9-24.1 11.85-47.75 13.97-68.66 31.01-4.92 4-2.2 11.3 2.12 14.22 53.77 36.38 137.4-26.95 168.05-70.92 36.15-51.89 41.78-130.98 1.77-182.72z"/>
    <path d="M1454.16 64.48c-1.23-2.07-4.47-.59-3.81 1.69 15.94 53.93 23.13 106.35.26 159.51-22.12 51.39-67.88 77.38-112.97 105.43-2.83 1.76-.73 5.56 2.23 5.02 121.44-22.2 174.44-170.8 114.29-271.65z" class="st22"/>
    <path d="M1506.09 150.84c-.89-1.43-3.44-.41-2.76 1.23 30.91 75.55-12.27 143.88-76.39 181.74-2.4 1.41-1.4 5.92 1.63 5.48 80.2-11.62 116.86-125.4 77.52-188.45zM1553.13 223.88c.04-1.25-1.81-1.14-1.91.05-1.69 19.12-8.02 40.86-15.62 58.43-7.5 17.34-22.81 23.54-32.6 37.79-.96 1.4.07 3.8 1.77 4.03 18.09 2.53 30.67-17.89 37.58-32 10.92-22.3 10-44.44 10.78-68.3zM1479.73 340.99c-6.94-1.68-9.55 9.07-2.62 10.75 6.95 1.69 9.56-9.07 2.62-10.75zM1560.88 188.11c-7.9-1.91-10.87 10.33-2.98 12.24 7.89 1.92 10.87-10.32 2.98-12.24zM1513.55 132.81c-7.66-1.86-10.54 10.01-2.89 11.87 7.67 1.87 10.54-10.01 2.89-11.87z" class="st22"/>
    <path d="M1483.45 230.85c-6.94-1.69-9.55 9.07-2.62 10.76 6.94 1.68 9.55-9.08 2.62-10.76zM1438.96 301.85c-6.82-1.66-9.39 8.91-2.57 10.57 6.81 1.65 9.39-8.92 2.57-10.57zM1155.2 279.72c-8.5-2.07-11.69 11.1-3.2 13.17 8.5 2.06 11.7-11.11 3.2-13.17zM1196.03 266.88c-8.14-1.97-11.2 10.63-3.06 12.61 8.13 1.98 11.2-10.63 3.06-12.61zM1196.09 307.62c-2.91-4.78-8.56-4.53-12.47-1.39-1.76 1.42-2.75 2.79-3.53 5.03-1.23 3.55 1.7 8.36 5.42 8.9 2.34.33 4.01.08 6.08-.84 4.58-2.02 7.4-6.92 4.5-11.7zM1218.35 278.49c-8.25-2-11.36 10.8-3.11 12.8 8.25 2.01 11.36-10.79 3.11-12.8z" class="st22"/>
    <path d="M1257.57 530.11c-39.28-5.8-78.32-10.93-117.41-18.07-1.56-.29-2.89 1.9-1.24 2.76 35.67 18.39 79.46 25.73 118.98 18.33 1.85-.35 1.25-2.77-.33-3.02z" class="st24"/>
    <path d="M1651.04 608.48c-68.83-15.48-141.9 39.22-203.12 63.45-2.28.9-.64 3.99 1.43 3.71 32.43-4.45 60.8-18.49 90.11-32.37 36.42-17.24 70.78-26.99 110.9-30.5 2.29-.19 3.28-3.71.68-4.29zM1577.78 716.34c-82.86 10.02-163.99 27.96-247.79 30.26-41.62 1.15-83.24-.98-124.66-4.84-44.57-4.16-89.9-14.38-134.49-15.78-.54-.02-.82.83-.29 1.06 37.98 16.42 81.44 18.86 121.7 27.07 40.63 8.28 85.1 7.44 126.39 7.64 87.24.44 179.61-5.97 260.45-40.61 2.3-.99 1.18-5.11-1.31-4.8zM1222 695.58c-12.37 0-12.37 19.18 0 19.18s12.37-19.18 0-19.18zM1257.12 692.33c-8.67 0-8.67 13.45 0 13.45 8.68.01 8.68-13.45 0-13.45zM1266.28 678.31c-9.05 0-9.05 14.03 0 14.03 9.05-.01 9.05-14.03 0-14.03zM1171.61 676.21c-9.78 0-9.78 15.17 0 15.17 9.79 0 9.79-15.17 0-15.17zM1131.91 682.6c-9.42 0-9.42 14.6 0 14.6 9.41 0 9.41-14.6 0-14.6z" class="st26"/>
    <path d="M1884.6 939.83c-8.15-78.98-70.79-137.22-139.92-130.09-69.13 7.14-118.56 76.94-110.4 155.92 8.15 78.98-40.76 191.28 27.07 206.4 126.26 28.12 231.39-153.25 223.25-232.23zm-208.47 153.31c-41.48-8.76-11.28-75.08-16.09-121.65-4.81-46.56 25.6-87.83 67.92-92.22 42.31-4.35 80.52 29.84 85.32 76.4 4.8 46.56-59.95 153.76-137.15 137.47z" class="st28"/>
    <path d="M1734.41 1082.97c-17.82 9.85-37.57 14.54-58.28 10.17-41.48-8.76-11.28-75.08-16.09-121.65-4.81-46.56 25.6-87.83 67.92-92.22 2.16-.22 4.31-.28 6.45-.3V811.4c-63.66 12.65-107.87 79.25-100.14 154.26 8.15 78.98-40.76 191.28 27.07 206.4 25.48 5.68 50.07 2.72 73.06-6.1v-82.99z" class="st29"/>
    <path d="M1696.33 728.83c0 44.36-168.45 80.33-376.26 80.33-207.8 0-376.26-35.97-376.26-80.33 0 0-57.76 289.79 62.15 500.83 41.99 73.91 106.31 113.57 314.11 113.57s285.56-21.18 334.27-115.25c88.91-171.71 41.99-499.15 41.99-499.15z" class="st28"/>
    <path d="M1844.23 878.49c-14.68-22.94-44.52-46.95-73.32-36.19-3.89 1.45-3.18 6.52.02 8.15 10.07 5.15 21.15 7.3 31.02 13.04 11.91 6.92 20.8 18.61 27.09 30.6 10.7 20.41 4.55 42.33 12.09 62.67 1.73 4.67 7.85 4.85 10.79 1.43 17.47-20.36 5.1-59.71-7.69-79.7z" class="st8"/>
    <path d="M1129.71 1234.69c-64.1-82.12-94.8-279.55-60.47-315.79 34.33-36.24 262.07-48.74 262.07-48.74s-176.97-4.05-187.32-70.32c-139.69-4.12-200.16-71.01-200.16-71.01s-57.76 289.79 62.15 500.83c41.99 73.91 106.31 113.57 314.11 113.57 13.18 0 25.81-.1 37.97-.28-71.4-31.07-156.68-16.44-228.35-108.26z" class="st29"/>
    <path d="M933.51 809.16c400.32 131.8 771.55 8.98 771.55 8.98" class="st30"/>
    <path d="M1656.02 795.79c-37.2-1.07-74.36 12.88-110.57 20.74-54.14 11.74-107.5 15.36-162.66 13.9-3.82-.1-4.53 5.62-.89 6.6 43.3 11.72 86.2 7.76 130.17 1.63 47.3-6.59 103.12-13.55 146.17-34.66 4.14-2.01 1.91-8.09-2.22-8.21z" class="st8"/>
    <path fill="#fbddea" d="M1664.98 894.26c-1.11-20.43 5.38-31.49-22.51-29.23-14.73 1.2-49.81 22.84-209.76 39.93-159.94 17.09-100.26-19.61-204.07 5.05-86.39 20.52-52.77 131.29-40.44 194.35 10.99 56.19 22.57 169.95 78.07 192.81 21.96 9.05 148.34-31.14 179.17-11.52 22.85 14.53 78.76 14.05 103.62 5.58 63.57-21.67 93.99-125.89 105.2-181.96 14.23-71.1 14.66-142.3 10.72-215.01z" opacity=".5"/>
    <g>
      <path fill="#fff9b6" d="M1383.33 248.34c-1.08-5.64-2.8-14.56-5.09-25.91-2.62-13.02-5.97-29.09-9.84-46.56-.07-.24-.11-.44-.17-.69-3.31-14.97-7.04-30.96-10.97-46.89-.01-.1-.05-.2-.08-.27-5.06-20.43-10.55-40.8-16.16-58.85l-.05-.18c-11.45-36.74-23.52-63.97-33.9-63.09-.22.01-.37.09-.58.1-10.03 1.73-18.52 26.68-25.42 60.1-.09.5-.21 1.02-.3 1.51-3.24 15.85-6.09 33.5-8.65 51.46-.17 1.15-.3 2.3-.48 3.46-2.62 18.87-4.84 37.99-6.68 55.55-.01.18-.03.36-.02.48-2 18.74-3.54 35.74-4.65 48.87-1.14 13.38-1.82 22.74-2.07 25.94 0 0 1.48 2.4 4.72 5.77 34.18 23.9 88.57 8.3 120.39-10.8z"/>
      <path fill="#a684bc" d="M1368.4 175.87c-.87-.03-1.8.08-2.74.4-15.96 5.22-29.02 9.22-45.92 9.84-18.39.69-35.68-1.49-53.43-7.74-.44-.15-.89-.28-1.36-.28-.34-.05-.75-.03-1.12.02.35.12.73.27 1.09.46-2 18.74-3.54 35.74-4.65 48.87 1.94 1.05 4.14.91 6.14.01 4.53 2 9.1 4.17 13.65 5.55 8.65 2.66 17.19 4.5 26.06 5.36 16.9 1.6 52.93-.39 72.1-15.93-2.6-13.03-5.95-29.1-9.82-46.56z"/>
      <path fill="#3bbfbf" d="M1357.26 128.29c-.01-.1-.05-.2-.08-.27-.73.17-1.44.35-2.15.48-3.78.77-7 1.07-10.49 1.38-6.38.55-13.63 1.08-26.62 4.66h-.06c-5.74 1.59-11.41.88-16.98-1.01-.03 0-.09-.02-.13-.02-9.54-3.24-18.97-9.86-28.63-14.43-.17 1.15-.3 2.3-.48 3.46-2.62 18.87-4.84 37.99-6.68 55.55-.34-.05-.75-.03-1.12.02.35.12.73.27 1.09.46 3.91 1.73 7.85 3.51 11.76 4.7 8.62 2.64 17.18 4.33 26.03 5.36 27.35 3.15 44.07-4.65 62.94-12.36.91-.34 1.78-.74 2.57-1.09-3.3-14.97-7.04-30.96-10.97-46.89z"/>
      <path fill="#91d0f2" d="M1357.18 128.02c-5.06-20.43-10.55-40.8-16.16-58.85l-.05-.18c-7.28 3.69-15.05 7.05-25.24 8.25-1.7.18-3.28.26-4.81.27h-.03c-7.64-.08-13.42-2.58-19.37-5.79-3.3-1.75-6.68-3.69-10.45-5.6-.09.5-.21 1.02-.3 1.51-3.24 15.85-6.09 33.5-8.65 51.46-.17 1.15-.3 2.3-.48 3.46 2.47 1.06 4.94 2.05 7.39 2.79 6.87 2.13 14.44 6.17 21.72 8.18.04 0 .1.03.13.02 1.84.51 3.64.87 5.43 1.06 3.89.36 7.75.32 11.55-.04h.06c8.94-.82 17.73-3.08 26.62-4.66 3.47-.62 6.96-1.14 10.49-1.38.28-.05.53-.06.8-.07.5-.02.96-.09 1.43-.14 0-.13-.04-.23-.08-.29z"/>
      <path fill="#f067a6" d="M1340.97 68.99c-11.45-36.74-23.52-63.97-33.9-63.09-.22.01-.37.09-.58.1-10.03 1.73-18.52 26.68-25.42 60.1-.09.5-.21 1.02-.3 1.51 3.23 1.21 6.98 2.69 10.75 4.1 7.16 2.71 14.57 5.32 19.37 5.79h.03c13.76 1.3 20.36-3.81 30.1-8.34l-.05-.17z"/>
      <path d="M1264.34 222.76l3.72 2.01c1.18.64 2.61 1.41 4.26 2.29 1.58.68 3.36 1.44 5.3 2.27 1.89.92 4.22 1.58 6.61 2.4 2.38.87 4.97 1.54 7.68 2.18 2.68.75 5.53 1.25 8.43 1.74 2.89.6 5.88.84 8.87 1.2 5.99.62 12.05.81 17.75.71 5.7-.11 11.03-.48 15.58-1 9.13-.98 15.11-2.45 15.11-2.45s-5.77 2.18-14.8 4.26c-4.51 1.07-9.83 2.09-15.61 2.91-5.77.8-11.99 1.35-18.27 1.46-3.13-.01-6.29.11-9.38-.14-3.1-.15-6.17-.32-9.11-.77-2.96-.33-5.83-.72-8.51-1.35-2.7-.57-5.25-.98-7.63-1.78-2.39-.72-4.58-1.37-6.53-1.95-1.75-.69-3.27-1.29-4.52-1.78-2.5-.99-3.93-1.55-3.93-1.55l4.98-10.66zM1269.3 172.69s1.14.74 3.15 2.03c1 .65 2.21 1.43 3.61 2.33 1.35.77 2.82 1.44 4.47 2.31 1.59.91 3.49 1.71 5.58 2.47 2.05.83 4.23 1.68 6.59 2.26 2.33.71 4.77 1.37 7.31 1.78 2.52.57 5.12.91 7.75 1.18 2.62.39 5.27.37 7.89.53 2.61.06 5.2-.01 7.71-.1 5-.31 9.7-.81 13.68-1.56 7.99-1.36 13.15-3.22 13.15-3.22s-4.85 2.53-12.71 5c-3.91 1.3-8.59 2.46-13.68 3.47-2.55.43-5.21.87-7.93 1.18-2.73.21-5.51.6-8.31.56-2.8.09-5.62.11-8.39-.13-2.79-.08-5.51-.42-8.16-.85-2.67-.3-5.19-.88-7.58-1.5-2.4-.53-4.68-1.14-6.79-1.97-2.09-.75-4.11-1.43-5.73-2.09-1.5-.7-2.81-1.32-3.89-1.82-2.16-1.01-3.39-1.59-3.39-1.59l5.67-10.27zM1275.93 113.83s.75.72 2.05 1.99c.65.63 1.45 1.4 2.36 2.29.93.98 1.89 1.62 2.97 2.52 1.12.83 2.16 1.92 3.61 2.77 1.4.88 2.84 1.91 4.42 2.82 1.62.8 3.27 1.75 5.04 2.53 1.8.65 3.59 1.55 5.49 2.06 3.76 1.19 7.7 2.01 11.46 2.35 3.76.36 7.34.35 10.4.05 6.14-.51 10.11-1.91 10.11-1.91s-3.65 2.08-9.79 3.72c-3.05.86-6.72 1.54-10.74 1.87-4.01.35-8.36.24-12.7-.32-2.19-.19-4.29-.8-6.44-1.18-2.1-.51-4.12-1.22-6.12-1.82-1.95-.7-3.77-1.55-5.55-2.27-1.79-.68-3.37-1.75-4.91-2.54-1.48-.84-3.02-1.62-3.97-2.34-1.05-.71-1.97-1.33-2.72-1.84l-2.37-1.6 7.4-9.15zM1284.98 61s.56.59 1.55 1.62c.49.52 1.09 1.14 1.78 1.86.69.73 1.34 1.16 2.12 1.87.75.67 1.59 1.42 2.68 2.08 1.05.67 2.11 1.53 3.37 2.1 2.43 1.33 5.2 2.56 8.15 3.34 5.88 1.76 12.31 1.99 17.1 1.57 4.82-.37 7.97-1.32 7.97-1.32s-2.85 1.64-7.61 3.12c-4.73 1.53-11.42 2.87-18.39 2.44-3.48-.12-6.97-.77-10.19-1.67-1.65-.36-3.13-1.04-4.59-1.57-1.46-.49-2.82-1.19-4.09-1.89-1.22-.67-2.55-1.32-3.36-1.87-.83-.55-1.55-1.03-2.15-1.42l-1.87-1.24 7.53-9.02z" class="st37"/>
      <path fill="#d0c9c4" d="M1265.62 260.95c25.98 16.13 62.31 11.26 91.9-.15-15.38-5.69-31.93-9.34-45.79-17.63-9.24-5.48-20.43-13-16.51-27.84 3.83-14.45 21.16-9.75 28.15-21.26-12.09-2.27-30.19-.84-33.6-18.56-3.35-17.44 6.6-32.48 21.48-33.53-13.2-11.93-25.29-19.28-21.47-38.9 3.08-15.91 8.5-28.09 24.18-23.38-24.34-15.3-19.96-51.83-4.98-72.14l-2.51-1.54c-30.85 5.39-46.83 228.95-48.26 247.38 1.67 2.57 4.24 5.11 7.41 7.55z"/>
      <path d="M1330.81 50.17c-1.04-2.2-2.22-4.28-3.57-6.31-.87-1.3-2.27-2.76-3.7-3.97-.09-.4-.2-.81-.28-1.22-.19-.89-.27-1.76-.37-2.64.03.24-.23-2.67-.17-1.53-.5-9.15-10.77-13.57-14.46-6.19-1.92 3.85-1.79 8.22-2.29 12.66-.07.6-.08 1.21-.1 1.81-.46.96-.72 2.04-.72 3.28-.26 3.43.58 7.4 2.19 10.82 3.44 7.31 10.73 12.16 17.39 10.25 6.13-1.72 9.52-9.66 6.08-16.96zM1343.32 115.85c1.58-3.54 1.51-7.55.14-11.25-.13-.36-.23-.73-.34-1.09v-.03c-.3-2.06-.95-4-1.39-6.02-.27-1.25-.9-2.37-1.62-3.44-.03-.26-.08-.53-.12-.81-.41-3.93-3.14-7.26-6.67-7.97-3.83-.77-6.59 1.5-8.41 4.89-.15.28-.28.57-.43.86-3.64 3.33-5.46 9.25-4.9 14.45.69 6.28 2.68 14.12 8.79 16.44 6.13 2.32 11.99.58 14.95-6.03zM1358.11 162.09c-.14-2.99-1.18-5.72-2.81-8.14a.711.711 0 00-.07-.15c-.39-.94-.76-1.89-1.27-2.78-1.13-1.86-2.42-3.51-4.03-4.79-2.99-5.34-10.49-5.14-13.71-.72-.24.33-.47.66-.69 1-.48.44-.94.94-1.34 1.51-2.96 3.26-3.06 7.56-3.08 11.9-.03 2.89 1.93 6.69 3.15 9.11 2.18 4.31 5.6 6.34 9.74 7.57 2.98.9 6.63-.24 9.04-2.09 3.74-2.86 5.28-7.43 5.07-12.42zM1364.43 205.8c.04.1.07.15.12.25-1.24-3.07-2.45-4.68-4.62-7.03.28.29-.31-.09-1.09-.66-2.6-8.54-13.62-8.05-16.66-.69-.22.5-.43 1.02-.61 1.56-.07.19-.11.29-.15.42-.83 1.17-1.51 2.46-2.08 3.82-2.38 5.72-1.31 12.63 2.31 17.61 4.73 6.5 12.66 8.94 18.96 4.12 5.78-4.43 6.89-12.61 3.82-19.4z" class="st8"/>
      <path fill="none" stroke="#2c0043" stroke-miterlimit="10" stroke-width="11.762" d="M1383.33 248.34c-1.08-5.64-2.8-14.56-5.09-25.91-2.62-13.02-5.97-29.09-9.84-46.56-.07-.24-.11-.44-.17-.69-3.31-14.97-7.04-30.96-10.97-46.89-.01-.1-.05-.2-.08-.27-5.06-20.43-10.55-40.8-16.16-58.85l-.05-.18c-11.45-36.74-23.52-63.97-33.9-63.09-.22.01-.37.09-.58.1-10.03 1.73-18.52 26.68-25.42 60.1-.09.5-.21 1.02-.3 1.51-3.24 15.85-6.09 33.5-8.65 51.46-.17 1.15-.3 2.3-.48 3.46-2.62 18.87-4.84 37.99-6.68 55.55-.01.18-.03.36-.02.48-2 18.74-3.54 35.74-4.65 48.87-1.14 13.38-1.82 22.74-2.07 25.94 0 0 1.48 2.4 4.72 5.77 34.18 23.9 88.57 8.3 120.39-10.8z"/>
    </g>
    <g>
      <path d="M1081.39 402.3c-7.29-30.86-27.18-64.26-57.56-92.28-58.53-53.97-158.02-62-158.02-62s-22.24 131.57 36.3 185.54c29.27 26.99 66.76 44.14 97.21 49.6" class="st40"/>
      <path d="M1065.79 419.23c-4.39-18.59-16.36-38.7-34.65-55.57-35.25-32.49-95.15-37.34-95.15-37.34s-13.39 79.22 21.85 111.72c17.63 16.25 40.2 26.57 58.53 29.86" class="st41"/>
      <path d="M1023.26 397.12l23.25 47.97M995.67 421.88l45.99 38.29" class="st42"/>
      <path d="M882.64 300.16c-1.28-2.65-2.36-5.2-1.81-8.16.2-1.07 1.59-.69 1.87.09.97 2.72 1.91 5.38 3.23 7.96.96 1.88 2.77 4.5 1.9 6.68-.17.44-.65.62-1.06.37-2.1-1.26-3.1-4.82-4.13-6.94zM879.16 303.24c-.11-1.31 1.68-1.79 2.03-.45.47 1.77 1.23 3.43 1.89 5.14.61 1.58 1.42 2.72.96 4.44-.08.29-.46.5-.75.38-3.11-1.24-3.86-6.57-4.13-9.51z" class="st37"/>
      <path d="M950.62 346.85c19.06 1.29 95.89 24.98 83.59 54.94-7.7-2.26-14.4-9.23-22.08-3.52 3.94 4.29 7.16 10.43 4.67 16.23-17.3-2.25-20.89-17.79-30.22-29.44-10.01-12.51-22.69-26.48-38.39-30.67l2.43-7.54z" class="st43"/>
      <path d="M1075.45 403.37c-25.81-32.96-49.5-60.08-86.13-81.57-36.43-21.38-79.36-32.4-119.59-44.23-15.76-4.63-7.94-28.49 7.78-24.18 80.24 22.01 182.46 54.03 203.69 147.03.72 3.14-3.63 5.65-5.75 2.95z" class="st44"/>
      <path d="M996.9 514.5c9.26-16.45 7.12-37.49 12.36-55.32 4.68-15.93 15.73-28.75 28.26-39.49 13.95-11.98 30.63-17.35 47.7-21.23 16.18-3.68 30.94-13.84 47.17-17.25l1.13.06" class="st45"/>
      <path d="M1075.75 417.57c-17.48-8.04-35.7 11.06-45.09 24.24-14.69 20.63-6.97 48.33-20.25 68.62-.87 1.34 1.03 2.64 2.12 1.64 12.45-11.41 12.8-25.56 16.79-41.28 2.72-10.7 12.44-19.31 20.03-26.82 8.23-8.16 19.3-9.24 27.69-16.43 2.93-2.51 2.29-8.33-1.29-9.97z" class="st43"/>
      <g>
        <path d="M1566.91 402.3c7.29-30.86 27.18-64.26 57.56-92.28 58.54-53.97 158.03-62 158.03-62s22.24 131.57-36.3 185.54c-29.27 26.99-66.75 44.14-97.2 49.6" class="st40"/>
        <path d="M1582.51 419.23c4.39-18.59 16.37-38.7 34.66-55.57 35.25-32.49 95.14-37.34 95.14-37.34s13.4 79.22-21.85 111.72c-17.63 16.25-40.19 26.57-58.53 29.86" class="st41"/>
        <path d="M1625.05 397.12l-23.25 47.97M1652.63 421.88l-45.98 38.29" class="st42"/>
        <path d="M1765.67 300.16c1.28-2.65 2.36-5.2 1.81-8.16-.21-1.07-1.59-.69-1.87.09-.97 2.72-1.9 5.38-3.23 7.96-.96 1.88-2.77 4.5-1.9 6.68.17.44.65.62 1.06.37 2.1-1.26 3.1-4.82 4.13-6.94zM1769.14 303.24c.11-1.31-1.68-1.79-2.03-.45-.47 1.77-1.23 3.43-1.89 5.14-.61 1.58-1.41 2.72-.95 4.44.08.29.46.5.75.38 3.11-1.24 3.86-6.57 4.12-9.51z" class="st37"/>
        <path d="M1697.69 346.85c-19.05 1.29-95.89 24.98-83.59 54.94 7.7-2.26 14.4-9.23 22.08-3.52-3.94 4.29-7.15 10.43-4.67 16.23 17.3-2.25 20.89-17.79 30.22-29.44 10.01-12.51 22.69-26.48 38.39-30.67l-2.43-7.54z" class="st43"/>
        <path d="M1572.86 403.37c25.8-32.96 49.5-60.08 86.13-81.57 36.42-21.38 79.36-32.4 119.59-44.23 15.76-4.63 7.94-28.49-7.78-24.18-80.24 22.01-182.45 54.03-203.69 147.03-.72 3.14 3.63 5.65 5.75 2.95z" class="st44"/>
      </g>
      <path d="M1645.49 511.62c-1.85 5 6.27-9.18-6.44-52.44-4.68-15.93-15.73-28.75-28.25-39.49-13.95-11.98-32.98-22.57-60.87-10.02" class="st45"/>
      <path d="M1572.56 417.57c17.48-8.04 35.7 11.06 45.09 24.24 14.69 20.63 5.34 44.7 1.34 28.98-2.72-10.7-12.43-19.31-20.02-26.82-8.24-8.16-19.3-9.24-27.69-16.43-2.94-2.51-2.3-8.33 1.28-9.97z" class="st43"/>
    </g>
    <path d="M1256.44 252.6c50.65 42.3 146.65-7.12 191.75-46.3" class="st30"/>
    <g>
      <path d="M1612.14 933.15c-7.44 0-7.44 11.54 0 11.54 7.45 0 7.45-11.54 0-11.54zM1630.79 955.62c-7.33 0-7.33 11.36 0 11.36 7.33-.01 7.33-11.36 0-11.36z" class="st46"/>
      <path d="M1440.09 917.06c-2.34-2.34-6.82-1.37-7.6 2.01l-.51 2.24c-.55 2.38 1.49 4.42 3.87 3.87.74-.17 1.49-.35 2.24-.52 3.37-.78 4.34-5.26 2-7.6zM1375.35 985.19c-7.67 0-7.67 11.89 0 11.89 7.66-.01 7.66-11.89 0-11.89zM1405.18 1039.32c-5.19 0-5.19 8.04 0 8.04s5.19-8.04 0-8.04zM1293.3 1148.98c-5.64 0-5.64 8.74 0 8.74s5.64-8.74 0-8.74zM1408.95 1089.91c-2.4-2.4-6.68-1.92-8.37 1.08-.63 1.12-1.19 1.54-2.05 2.85-1.05 1.59-.95 3.68.06 5.24 1.12 1.74 3.62 2.24 5.16.72-.16.15.54-.19.71-.24 1.19-.29 2.3-.77 3.42-1.28 3.17-1.44 3.31-6.13 1.07-8.37zM1375.35 1149.43c-.24 0-.24.37 0 .37s.24-.37 0-.37z" class="st43"/>
      <path d="M1089.64 968.56c-.25.11-.48.22-.71.37-2.66 1.69-2.66 5.42 0 7.11.24.15.47.26.71.37 3.05 1.35 6.84-.19 6.84-3.93 0-3.73-3.8-5.27-6.84-3.92zM1132.95 978.75c-3.95 0-3.95 6.11 0 6.11s3.95-6.11 0-6.11zM1088.2 1055.22c-6.32 0-6.32 9.79 0 9.79 6.32.01 6.32-9.79 0-9.79zM1052.77 1144c-4.85 0-4.85 7.52 0 7.52 4.85-.01 4.85-7.52 0-7.52zM1119.9 1021.43c-9.02 0-9.02 13.98 0 13.98s9.02-13.98 0-13.98zM1093.8 1206.72c-8.12 0-8.12 12.58 0 12.58 8.11.01 8.11-12.58 0-12.58zM1127.36 1263.12c-9.92 0-9.92 15.38 0 15.38 9.92.01 9.92-15.38 0-15.38zM1599.09 1090.91c-5.98 0-5.98 9.27 0 9.27s5.98-9.27 0-9.27zM1623.33 1128.44c-3.27 0-3.27 5.07 0 5.07s3.27-5.07 0-5.07zM1606.55 1140.03c-.34 0-.34.52 0 .52.34.01.34-.52 0-.52zM1602.82 1111.01c-8.9 0-8.9 13.81 0 13.81 8.91.01 8.91-13.81 0-13.81zM1628.92 1085.79c-7.78 0-7.78 12.06 0 12.06s7.78-12.06 0-12.06z" class="st47"/>
      <path d="M1277.69 1200.91c30.77 39.66 107.33 16.72 91.63-44.38M1089.27 944.36c22.35 41.34 100.99 32.18 132.29 16.4" class="st48"/>
      <path d="M1095.38 952.58s-.6.39-1.65 1.09c-.58.36-1.03.73-2.02 1.28-1.02.53-2.18 1.12-3.43 1.77-1.24.57-2.51.89-3.87 1.36-1.35.45-2.82.63-4.28.96-2.96.47-6.08.62-9.11.48-12.21-.54-22.78-5.27-22.78-5.27s2.85.42 7.1.54c4.24.11 9.9-.19 15.17-1.39 2.63-.6 5.14-1.44 7.3-2.43 1.04-.57 2.1-.99 2.96-1.59.83-.6 1.74-1.11 2.32-1.64.55-.54 1.04-.99 1.47-1.36.45-.4 1.04-1.16 1.43-1.57.83-.94 1.3-1.48 1.3-1.48l8.09 9.25zM1110.36 968.62s-.6.39-1.65 1.09c-.58.36-1.03.73-2.02 1.28-1.02.53-2.17 1.12-3.43 1.77-1.24.57-2.5.89-3.87 1.36-1.35.45-2.81.63-4.28.95-2.96.47-6.08.62-9.11.48-12.21-.54-22.78-5.27-22.78-5.27s2.85.42 7.1.54c4.24.1 9.9-.19 15.17-1.39 2.63-.6 5.14-1.44 7.3-2.43 1.04-.57 2.1-.99 2.96-1.59.83-.6 1.74-1.11 2.33-1.63.54-.54 1.03-.99 1.47-1.36.45-.4 1.04-1.16 1.43-1.57.83-.94 1.3-1.48 1.3-1.48l8.08 9.25zM1137.33 977.15s-.55.45-1.52 1.25c-.54.42-.95.83-1.88 1.49-.96.63-2.05 1.34-3.23 2.12-1.17.69-2.4 1.15-3.71 1.76-1.3.59-2.73.92-4.16 1.39-2.9.77-5.98 1.24-9.01 1.42-12.2.72-23.21-2.89-23.21-2.89s2.88.13 7.12-.2c4.23-.33 9.83-1.21 14.95-2.95 2.56-.87 4.96-1.97 7.01-3.17.97-.68 1.99-1.2 2.78-1.89.76-.68 1.61-1.28 2.14-1.87.49-.59.93-1.09 1.32-1.51.41-.44.92-1.26 1.26-1.71.72-1.02 1.14-1.61 1.14-1.61l9 8.37zM1165.62 974.9s-.42.58-1.15 1.6c-.41.55-.7 1.05-1.43 1.92-.76.86-1.63 1.83-2.57 2.89-.95.97-2.02 1.73-3.12 2.66-1.1.9-2.4 1.6-3.65 2.43-2.6 1.5-5.45 2.76-8.33 3.72-11.59 3.88-23.15 3.26-23.15 3.26s2.81-.63 6.82-2.05c4-1.43 9.17-3.73 13.66-6.75 2.24-1.51 4.27-3.19 5.94-4.89.76-.91 1.61-1.68 2.19-2.55.56-.86 1.23-1.66 1.58-2.36.31-.7.61-1.29.88-1.8.28-.53.56-1.46.77-1.98.43-1.18.68-1.85.68-1.85l10.88 5.75zM1193.45 973.66s-.28.53-.78 1.46c-.26.48-.58 1.06-.94 1.73-.51.81-1.09 1.72-1.71 2.71-.63 1-1.39 1.74-2.15 2.69-.73.94-1.68 1.73-2.57 2.62-1.84 1.72-3.95 3.27-6.09 4.68-8.69 5.53-18.18 7.53-18.18 7.53s2.09-1.21 4.93-3.37c2.83-2.16 6.37-5.3 9.22-8.79 1.39-1.78 2.66-3.58 3.6-5.34.44-.9.95-1.7 1.23-2.55.28-.81.7-1.61.81-2.24.15-.61.28-1.17.41-1.66.12-.69.23-1.3.32-1.79.18-1.04.27-1.63.27-1.63l11.63 3.95zM1217.38 969.33s-1.14 1.42-2.85 3.56c-.74 1.02-2.18 2.48-3.42 3.84-1.27 1.46-2.76 2.65-4.18 3.92-2.89 2.48-6 4.59-8.38 6.01-2.37 1.43-4.04 2.18-4.04 2.18s1.21-1.37 2.74-3.59c1.53-2.21 3.39-5.25 4.86-8.4.7-1.58 1.49-3.14 1.9-4.58.47-1.51.94-2.54 1.25-3.99l1.13-4.41 10.99 5.46z" class="st37"/>
      <g>
        <path d="M1539.52 957.3c-22.35 41.34-100.99 32.17-132.29 16.39" class="st48"/>
        <path d="M1541.49 956.25s.47.54 1.3 1.48c.39.41.98 1.18 1.43 1.57.44.37.93.82 1.47 1.36.59.53 1.5 1.03 2.33 1.63.86.6 1.92 1.02 2.96 1.59 2.17.99 4.67 1.83 7.31 2.43 5.27 1.2 10.93 1.5 15.17 1.39 4.25-.11 7.1-.54 7.1-.54s-10.57 4.73-22.79 5.27c-3.04.14-6.15-.01-9.11-.48-1.47-.32-2.93-.51-4.28-.96-1.36-.47-2.63-.8-3.87-1.36-1.26-.65-2.41-1.24-3.43-1.77-.99-.55-1.44-.92-2.02-1.28-1.05-.69-1.65-1.09-1.65-1.09l8.08-9.24zM1526.51 972.29s.47.54 1.3 1.48c.39.41.98 1.17 1.43 1.57.44.38.93.82 1.47 1.36.59.53 1.49 1.03 2.32 1.63.86.6 1.92 1.02 2.96 1.59 2.17.99 4.67 1.83 7.31 2.43 5.27 1.2 10.93 1.49 15.17 1.39 4.25-.11 7.1-.54 7.1-.54s-10.57 4.73-22.78 5.27c-3.04.14-6.15-.01-9.11-.48-1.47-.32-2.93-.51-4.28-.95-1.36-.47-2.63-.8-3.87-1.36-1.26-.65-2.41-1.25-3.43-1.77-1-.55-1.44-.92-2.02-1.28-1.05-.69-1.65-1.09-1.65-1.09l8.08-9.25zM1500.47 981.71s.41.59 1.14 1.61c.34.45.85 1.27 1.26 1.71.4.42.84.91 1.32 1.51.53.58 1.38 1.18 2.14 1.87.79.69 1.8 1.21 2.78 1.89 2.05 1.21 4.46 2.3 7.01 3.17 5.12 1.74 10.72 2.62 14.95 2.95 4.24.33 7.12.2 7.12.2s-11 3.61-23.2 2.89c-3.04-.18-6.11-.65-9.01-1.42-1.43-.47-2.87-.81-4.16-1.39-1.31-.61-2.53-1.06-3.71-1.75-1.18-.78-2.27-1.49-3.23-2.12-.93-.65-1.33-1.06-1.88-1.48-.97-.8-1.53-1.25-1.53-1.25l9-8.39zM1474.05 982.1s.25.67.68 1.85c.21.52.49 1.45.77 1.98.27.51.57 1.1.88 1.8.36.7 1.02 1.5 1.58 2.36.58.87 1.43 1.64 2.19 2.55 1.67 1.7 3.7 3.39 5.94 4.89 4.49 3.01 9.66 5.32 13.66 6.75 4.01 1.42 6.82 2.05 6.82 2.05s-11.56.61-23.15-3.27c-2.88-.96-5.73-2.22-8.33-3.72-1.25-.83-2.55-1.53-3.65-2.43-1.1-.93-2.17-1.69-3.12-2.66-.94-1.06-1.8-2.03-2.57-2.89-.73-.88-1.01-1.38-1.42-1.92-.73-1.02-1.15-1.61-1.15-1.61l10.87-5.73zM1446.98 982.64s.1.59.28 1.63c.09.5.2 1.1.32 1.79l.41 1.66c.1.63.53 1.43.81 2.24.28.84.79 1.65 1.23 2.54.94 1.77 2.21 3.57 3.6 5.34 2.85 3.5 6.39 6.63 9.22 8.79 2.83 2.15 4.93 3.36 4.93 3.36s-9.5-1.99-18.18-7.53c-2.13-1.41-4.25-2.96-6.08-4.68-.89-.89-1.84-1.68-2.57-2.62-.76-.94-1.52-1.69-2.15-2.69-.63-.99-1.21-1.9-1.72-2.71-.36-.67-.68-1.25-.94-1.73-.49-.93-.78-1.46-.78-1.46l11.62-3.93zM1422.42 976.78s.45 1.77 1.13 4.41c.32 1.45.79 2.48 1.26 3.99.4 1.44 1.19 3 1.9 4.58 1.46 3.15 3.32 6.19 4.86 8.4 1.53 2.22 2.74 3.59 2.74 3.59s-1.67-.75-4.04-2.18c-2.38-1.42-5.48-3.52-8.38-6.01-1.43-1.27-2.92-2.46-4.19-3.92-1.24-1.35-2.68-2.82-3.43-3.84-1.71-2.14-2.85-3.56-2.85-3.56l11-5.46z" class="st37"/>
      </g>
      <g>
        <path d="M1241.25 1081.9c19.61-50.29 116.86-46.49 134.47-6.71M1350.01 1078.25c-5.84-2.77-15.64-3.4-19.86 2.54-6.21 8.75 4.39 9.92 6.8 3.05" class="st48"/>
        <path d="M1272.03 1078.25c5.84-2.77 15.63-3.4 19.85 2.54 6.21 8.75-4.39 9.92-6.8 3.05" class="st48"/>
      </g>
      <g class="st49">
        <path d="M1265.95 1070.84c13.87-4.22 28.33-5.72 42.78-5.02 7.44.36 14.98 1.17 22.3 2.55 6.66 1.26 14.33 5.67 20.81 2.49 2.92-1.43 3.07-4.92 1.97-7.51-2.85-6.69-14.2-7.63-20.5-8.78-8.16-1.48-16.3-2.07-24.58-1.7-15.47.7-32.15 3.56-45.06 12.56-2.62 1.85-1.09 6.44 2.28 5.41z" class="st8"/>
      </g>
      <g class="st49">
        <path d="M1289.49 1204.38c10.01 14.01 31.09 16.88 46.93 13.03 16.92-4.11 35.28-17.87 34.2-37.15-.37-6.55-4.02-14.23-11.62-14.23-8.24 0-9.73 8.83-9.95 15.15-.03.9-.12 1.8-.19 2.7.2-2.69-.1.04-.22.57-.2.84-.5 1.64-.79 2.45.87-2.38-.19.16-.41.57-1.02 1.87-3.97 4.96-5.41 6.01-6.42 4.67-12.89 6.71-21.33 8.35-2.99.58-6.81.72-10.5.53-4-.21-6.84-1.07-10.63-2.16-1.55-.44-2.86-.83-4.3-1.59-3.46-1.85-8.39 2.1-5.78 5.77z" class="st8"/>
      </g>
    </g>
  </g>
</svg>
