<svg version="1.1" id="Capa_1" xmlns="http://www.w3.org/2000/svg" x="0" y="0" viewBox="0 0 2048.32 1860.41" xml:space="preserve">
  <style>
    .st1,.st2{fill:#ededed;stroke:#34073e;stroke-width:12.8717;stroke-linecap:round;stroke-linejoin:round;stroke-miterlimit:10}.st2{fill:#ef97c0}.st3{fill:#dec0cf}.st4,.st5{fill:#45babd;stroke:#34073e;stroke-width:12.8717;stroke-linecap:round;stroke-linejoin:round;stroke-miterlimit:10}.st5{fill:#ffee9f}.st6{fill:#ebdece}.st7{fill:#dadada}.st8{fill:#b6d0e0}.st9{fill:#fff}
  </style>
  <path d="M329.93 158.44c-106.18 72.98-200.78 210.95-106.18 320.63 103.01 119.44 269.92-7.57 365.26 82.27 125.98 118.72-89.72 209.78-171.83 238.59-123.09 43.19-271.26 75.72-356.11 178.75-80.71 98.02-87.06 259.45 15.01 347.76 115.08 99.58 254.41-7.56 375.89 47.09 163.94 73.75 1.98 183.98-9.39 287.75-27.25 249.05 593.58 197.03 747.46 189.65 139.8-6.71 282.35-9.37 391.09-98.94 43.06-35.46 106.58-83.46 104.22-139.64-3.51-83.61-93.96-68.81-128.31-117.24-79.53-112.13 207.21-138.49 275.57-164.3 119.37-45.07 251.19-155.98 206.94-294.53-43.63-136.63-202.83-134.08-319.66-139.67-112.98-5.41-383.26-55.92-208.05-204.03 95.16-80.43 236.1-49.27 340.28-131.02 91.97-72.16 175.52-203.04 84.92-304.82-164.54-184.86-684.56 119.01-766.3-115.18-26.86-76.97-14.96-114.1-112.91-139.85-56.23-14.78-600.09 68.9-727.9 156.73z" fill="#cbe9fc"/>
  <path class="st1" d="M1820.85 677.6H289.12l424.77-424.78h703.59zM1820.85 677.6H289.12l765.87 1085.51z"/>
  <path class="st2" d="M713.89 252.82L563.67 677.6h356.11z"/>
  <path class="st3" d="M713.89 252.82l147.98 391.53-298.2 33.25h356.11z"/>
  <path class="st4" d="M1054.99 1763.11L563.67 677.6h356.11z"/>
  <path class="st5" d="M1054.99 1763.11L563.67 677.6H289.12z"/>
  <path class="st2" d="M1417.48 252.82l128.84 424.78h-356.1z"/>
  <path class="st3" d="M1417.48 252.82l-154.46 391.53 283.3 33.25h-356.1z"/>
  <path class="st5" d="M1417.48 252.82h-362.49l135.23 424.78z"/>
  <path class="st6" d="M1417.48 252.82l-245.02 369.05 17.76 55.73z"/>
  <path class="st1" d="M713.89 252.82h341.1L919.78 677.6z"/>
  <path class="st7" d="M888.8 613.7l166.19-360.88L919.78 677.6z"/>
  <path class="st4" d="M1054.99 252.82l135.23 424.78H919.78z"/>
  <path class="st8" d="M1054.99 252.82L971.26 630.4l218.96 47.2H919.78zM919.78 677.6l135.21 1085.51L876.4 736.05 563.67 677.6z"/>
  <path class="st5" d="M1054.99 1763.11L1546.32 677.6h-356.1z"/>
  <path class="st6" d="M1054.99 1763.11l171.62-1029.74 319.71-55.77h-356.1z"/>
  <path class="st2" d="M1054.99 1763.11L1546.32 677.6h274.53z"/>
  <path class="st9" d="M1417.48 316.11l86.89 328.24-54.7-16.1zM1504.37 709.77l-419.4 935.35 352.95-920.33z"/>
  <path class="st6" d="M1053.46 1750.85L517.09 730.19 289.12 677.6h274.55z"/>
  <path class="st9" d="M626.74 1057.72c0-.04.03-.08.01-.12-32.69-78.38-74.46-154.52-113.62-229.87-.66-1.29-2.46-.16-1.9 1.12 28.42 65.85 60.57 131.72 94.96 195.17L430.65 736.05h-60.07l513.86 744.41-257.7-422.74zM1069.98 336.49l86.86 328.23-61.15-20.37zM608.71 697.43l77.24 30.03 310.47 855.97zM1473.27 340.79l227.39 303.56 81.51 16.08zM734.34 265.79l271.24 50.32 12.87-50.32z"/>
  <path class="st7" d="M1417.48 252.82l128.84 424.78h81.4z"/>
  <path class="st9" d="M1125.74 709.77l-47.43 702.01 94.15-702.01z"/>
  <path class="st7" d="M919.78 677.6l133.68 1073.25 19.62-132.97z"/>
  <path class="st9" d="M647.98 340.79L420.59 644.35l-81.52 16.08z"/>
  <path class="st7" d="M703.76 252.82L574.92 677.6h-81.39z"/>
  <path class="st9" d="M1180.88 579.11l-95.91-306.97h283.29l-240.39 27.89zM595.84 644.35l128.73-340.04 17.14 70.8z"/>
  <path class="st3" d="M1546.32 677.6l-381.98 929.43-100.69 143.82z"/>
  <path class="st9" d="M1561.22 697.43h208.09l-474.64 690.78 401.85-656zM1373.97 463.24c-20.1 42.09-30.61 88.94-45.65 133.03-.46 1.35 1.64 2.22 2.29.96 21.58-41.43 28.07-89.89 44.64-133.46.29-.73-.95-1.24-1.28-.53zM1375.63 527.32c-6.44 13.49-9.36 28.79-12.94 43.22-.38 1.52 1.83 2.11 2.32.64 4.66-14.14 11.21-28.34 12.96-43.23.15-1.23-1.8-1.72-2.34-.63zM1390.85 544.77c-.16-1.02-1.55-1.2-2.18-.58-4.35 4.19-4.86 11.69-7.16 17.13-.94 2.2 2.09 4.15 3.29 1.93 2.88-5.24 7.02-12.42 6.05-18.48zM1385.31 413.43c-3.82 0-3.82 5.93 0 5.93 3.83 0 3.83-5.93 0-5.93zM1393.89 446.16c-3.12 0-3.12 4.83 0 4.83 3.11.01 3.11-4.83 0-4.83zM1406.76 403.46c-2.86 0-2.86 4.43 0 4.43 2.86-.01 2.86-4.43 0-4.43zM1398.18 374.36c-4.41 0-4.41 6.84 0 6.84s4.41-6.84 0-6.84z"/>
  <path class="st9" d="M1523.85 819.17c-56.79 86.64-96.25 190.49-130.34 287.9-.14.43.56.73.73.31 41.44-97.11 87.06-191.46 131.42-287.13.57-1.23-1.07-2.23-1.81-1.08zM1501.85 915.41c-20.64 26.82-28.83 60.87-44.26 90.55-.46.87.76 1.57 1.31.76 18.75-27.9 32.3-58.91 45.83-89.65.88-1.97-1.56-3.35-2.88-1.66zM1531.18 875.07c-3.31 0-3.31 5.12 0 5.12 3.32 0 3.32-5.12 0-5.12zM1518.31 920.17c-3.25 0-3.25 5.03 0 5.03s3.25-5.03 0-5.03zM1524.75 935.01c-.71 0-.71 1.11 0 1.11.71-.01.71-1.11 0-1.11zM1554.78 891.13c-4.73 0-4.73 7.34 0 7.34 4.74 0 4.74-7.34 0-7.34zM1045.28 422.54c-9.99 45.37-17.54 91.53-26.12 137.19-.37 1.89 2.36 2.7 2.89.8 12.53-44.61 22.03-91.43 25.4-137.7.1-1.25-1.89-1.5-2.17-.29zM1055.62 497.52c-3.8 11.72-6.06 24.57-6.78 36.87-.13 2.14 2.92 2.33 3.56.49 3.99-11.61 5.99-24.67 6.19-36.95.03-1.76-2.44-2-2.97-.41zM1057.08 422.16c-3.64 0-3.64 5.63 0 5.63 3.62.01 3.62-5.63 0-5.63zM1042.06 366.39c-3.63 0-3.63 5.63 0 5.63 3.64 0 3.64-5.63 0-5.63zM1057.08 385.85c-3.44 0-3.44 5.33 0 5.33 3.43-.01 3.43-5.33 0-5.33zM1222.94 349.04c-12 22.13-18.99 47.12-25.68 71.27-.44 1.55 1.98 2.67 2.67 1.12 10.14-23 17.84-47.35 26.12-71.08.65-1.84-2.19-3.01-3.11-1.31zM1244.65 359.91c-10.2 18.43-16.7 38.83-26.09 57.72-1.05 2.11 1.79 3.71 3.13 1.83 12.08-16.94 19.13-38.84 25.53-58.47.5-1.52-1.8-2.46-2.57-1.08zM1281.11 342.75c-28.02 37.2-38.83 86.31-62.35 126.5-1.02 1.76 1.58 3.21 2.71 1.57 26.36-38.06 43.45-84.38 62.08-126.64.74-1.68-1.33-2.88-2.44-1.43zM1318.8 304.17c-3.63 0-3.63 5.63 0 5.63s3.64-5.63 0-5.63zM1312.37 342.38c-4.16 0-4.16 6.44 0 6.44 4.15 0 4.15-6.44 0-6.44zM1286.63 306.37c-3.58 0-3.58 5.53 0 5.53 3.56 0 3.56-5.53 0-5.53zM1570.97 513.91c-1.51-1.59-3.64.71-2.34 2.34 24.8 31.5 30.82 72.4 54.06 104.38.53.72 1.94.32 1.56-.66-13.41-35.69-26.56-77.91-53.28-106.06zM1608.05 535.49c-1.49-2.17-4.89-.26-3.56 2.08 9.93 17.53 17.92 38.25 30.35 54.05 1.41 1.78 3.79-.21 3.44-2.01-3.67-19.67-19.16-37.98-30.23-54.12zM1640.59 627.51c-4.41 0-4.41 6.84 0 6.84s4.41-6.84 0-6.84zM1659.9 623.92c-3.5 0-3.5 5.42 0 5.42 3.51.01 3.51-5.42 0-5.42zM1296.04 918.03c-21.62 66.96-45.83 132.94-67.93 199.71-.21.65.81 1.09 1.12.47 29.69-63.31 55.17-130.91 69.44-199.46.33-1.71-2.09-2.39-2.63-.72zM1272.24 905.1c-24.57 74.41-62.09 144.98-80.65 221.21-.19.82 1.03 1.16 1.26.35 22.71-75.1 66.76-143.51 82.4-220.72.4-1.97-2.36-2.75-3.01-.84zM1250.39 878.66c-17.91 34.4-24.49 73.98-38.16 110.12-.6 1.6 2.04 2.7 2.77 1.16 16.33-34.93 28.81-72.53 39.44-109.58.67-2.38-2.88-3.95-4.05-1.7zM1310.22 829.17c-4.41 0-4.41 6.84 0 6.84s4.41-6.84 0-6.84zM1323.09 867.38c-4.92 0-4.92 7.64 0 7.64 4.94 0 4.94-7.64 0-7.64zM1355.64 830.45c-.99.45-1.78 1.32-2.62 2.04-3.07 2.69 1.79 7.56 4.5 4.48.71-.82 1.57-1.62 2.02-2.61 1.22-2.69-1.21-5.1-3.9-3.91zM1320.79 795.2c.21.78.53 1.52.85 2.26 1.19 2.73 6 2.73 7.2 0 .32-.74.64-1.48.87-2.26 2.1-7.45-11.04-7.45-8.92 0zM1345.16 852.68c-.89-3.76-5.87-4.86-8.51-2.24-2.62 2.63-1.51 7.6 2.26 8.48.86.2 1.71.4 2.59.55 2.71.46 4.66-1.5 4.19-4.2-.15-.87-.34-1.72-.53-2.59zM1194.37 1229.58c-5.37 0-5.37 8.35 0 8.35 5.39-.01 5.39-8.35 0-8.35zM1211.54 1257.72c-5.06 0-5.06 7.85 0 7.85 5.05-.01 5.05-7.85 0-7.85zM1007.5 830.44c-.09-2.46-3.73-2.47-3.81 0-3.23 88.5-.8 180.36 22.52 266.24.3 1.09 1.83.61 1.67-.45-14.25-88.45-16.91-176.53-20.38-265.79zM1043.36 869.05c-.18-1.69-2.43-1.69-2.6 0-3.6 35.3-3.06 72.08 1.58 107.26.31 2.31 3.68 2.47 3.72 0 .61-35.53.91-71.88-2.7-107.26zM1069.36 892.22c-.27-1.54-2.81-1.54-3.11 0-3.09 16.97-1.17 36.05 3.85 52.46.81 2.59 4.39 1.48 3.99-1.09-2.71-17-1.64-34.54-4.73-51.37zM1048.5 769.04c-4.47 0-4.47 6.94 0 6.94s4.47-6.94 0-6.94zM1087.11 785.25c-5.7 0-5.7 8.85 0 8.85 5.71 0 5.71-8.85 0-8.85zM1076.39 833.51c-4.35 0-4.35 6.73 0 6.73 4.34 0 4.34-6.73 0-6.73zM1012.02 790.3c-4.73 0-4.73 7.34 0 7.34 4.75 0 4.75-7.34 0-7.34zM1065.66 716.1c-6.36 0-6.36 9.85 0 9.85 6.36.01 6.36-9.85 0-9.85zM1050.65 1099.42c-3.28 0-4.26 3.67-2.46 5.92.29.36.56.72.9 1.02.95.83 2.16.83 3.11 0 .35-.3.6-.66.9-1.02 1.81-2.25.82-5.92-2.45-5.92zM1051.03 1169.39c.34-6.04-9.77-6.01-9.35 0 .27 4.06 2.46 7.04 6.82 6.9 1.47-.04 2.55-1.15 2.62-2.61.06-1.72-.19-2.54-.09-4.29zM1074.81 1150.15c-2.53-5.7-12.53-1.51-10.1 4.26.34.81.61 1.63 1.13 2.35 1.47 2.03.92 1.85.67-.25.95 8.05 12.09 6.56 10.97-1.48-.3-2.09-2.22-3.9-2.67-4.88zM869.8 332.73c-.2-1.94-2.8-1.94-3.02 0-4.05 37.96-4.45 77.67-4.94 115.85-.04 2.4 3.77 3.01 4.23.57 7.25-37.29 7.74-78.71 3.73-116.42zM885.48 355.75c-4.61 26.92-6.14 54.91-3.58 82.1.17 1.78 2.87 1.85 2.82 0-.69-27.39 4.89-54.25 5.11-81.52 0-2.44-3.94-3.1-4.35-.58zM909.89 387.75c-10.37 23.08-7.14 51.17-7.95 75.84-.11 3.71 5.24 3.52 5.64 0 2.78-24.79 3.65-50.17 5.13-75.08.08-1.44-2.2-2.13-2.82-.76zM928.36 323.23c-3.97 0-3.97 6.14 0 6.14 3.96 0 3.96-6.14 0-6.14zM945.52 361.09c-4.92 0-4.92 7.64 0 7.64 4.93 0 4.93-7.64 0-7.64zM928.36 408.14c-5.14 0-5.14 7.94 0 7.94 5.12 0 5.12-7.94 0-7.94zM967.15 346.51c-.32.24-.64.48-.98.72-1.96 1.46-1.96 3.86 0 5.33.34.24.66.48.98.73 2.47 1.83 5.89-.67 5.89-3.39s-3.42-5.24-5.89-3.39zM755.69 407.21c-29.44 57.22-41.01 124.16-62.81 184.65-.66 1.85 2.19 2.98 3.13 1.33 31.47-55.68 42.93-124.35 61.9-185.04.4-1.31-1.58-2.16-2.22-.94zM762.07 477.51c-17.08 21.54-25.09 51.4-30.87 77.79-.55 2.53 3.13 3.57 3.88 1.07 8-26.57 21.24-51.06 29.6-77.35.45-1.41-1.62-2.76-2.61-1.51zM774.61 524.97c-5.95 12.17-9.35 25.52-11.38 38.87-.4 2.69 3.6 3.92 4.18 1.15 2.7-13.12 7.74-25.62 10.23-38.75.33-1.73-2.16-3.06-3.03-1.27zM735.27 603.56c-4.85 0-4.85 7.55 0 7.55 4.89-.01 4.89-7.55 0-7.55zM675.21 612.75c-4.07 0-4.07 6.33 0 6.33 4.09 0 4.09-6.33 0-6.33zM709.54 644.62c-4.48 0-4.48 6.94 0 6.94 4.47 0 4.47-6.94 0-6.94zM735.92 561.65c-2.22-2.22-5.56-.97-6.56 1.73-.3.83-.59 1.66-.88 2.5-.62 1.85 1.36 3.83 3.23 3.22.83-.28 1.66-.59 2.49-.89 2.68-1 3.93-4.34 1.72-6.56zM771.76 610.45c-4.28 0-4.28 6.64 0 6.64s4.28-6.64 0-6.64zM801.78 580.16c-4.6 0-4.6 7.14 0 7.14 4.62 0 4.62-7.14 0-7.14zM573.04 467.1c-27.13 41.27-50.2 85.16-77.28 126.55-1.15 1.75 1.61 3.29 2.79 1.62 28.18-40.07 56.74-81.94 77.19-126.6.82-1.81-1.57-3.28-2.7-1.57zM495.01 621.62c-3.69 0-3.69 5.73 0 5.73 3.7 0 3.7-5.73 0-5.73zM469.28 612.14c-4.88 0-4.88 7.54 0 7.54 4.85 0 4.85-7.54 0-7.54zM509.31 778.11c-1.15-1.8-3.85-.22-2.85 1.67 28.92 54.71 48.55 118.67 83.98 169.3.78 1.13 2.98.45 2.38-1.01-23.38-56.88-50.29-118.15-83.51-169.96zM617.3 966.36c-2.47 0-4.64 3.07-3.04 5.3.36.5.72 1.01 1.08 1.51 1.04 1.45 2.88 1.45 3.92 0 .37-.5.72-1.01 1.08-1.51 1.6-2.23-.57-5.3-3.04-5.3zM634.45 1020.14c-4.35 0-4.35 6.74 0 6.74s4.35-6.74 0-6.74zM647.32 1043.16c-2.32 0-2.32 3.62 0 3.62 2.35 0 2.35-3.62 0-3.62zM899.64 1114.68c-16.04-50.86-33.28-101.47-51.25-151.67-.7-1.93-3.65-1.17-3.1.85 12.9 47.49 29.56 93.85 44.77 140.63 16.42 50.56 27.65 102.61 43.76 153.11.34 1.04 2.09.91 1.98-.26-4.49-48.37-21.61-96.53-36.16-142.66zM824.26 967.46c-.44-1.28-2.39-.77-2.02.57 17.36 66.83 37.69 133.6 64.25 197.38.56 1.33 2.69.86 2.22-.61-20.56-66.02-42.04-131.93-64.45-197.34zM808.22 887.13c-4.34 0-4.34 6.74 0 6.74 4.35 0 4.35-6.74 0-6.74zM850.06 916.25c.49-4.66-7.92-3.76-6.33.85.81 2.3 2.83 3.81 3.6 6.03.66 1.89 3.16 1.45 3.37-.45.24-2.21-.88-4.24-.64-6.43zM874.07 975.31c-.53-2.45-2.32-5.52-5.05-5.9-1.6-.22-3.61.66-3.45 2.61.14 1.51 1.08 2.83 1.09 4.29.08 5.45 8.61 4.45 7.41-1zM859.71 872.47c-3.9 0-3.9 6.03 0 6.03s3.9-6.03 0-6.03zM828.29 845.9c-.32-.52-.67-1.03-.99-1.56a2.246 2.246 0 00-3.83 0c-.32.53-.66 1.04-.99 1.56-1.4 2.19.44 5.07 2.91 5.07s4.3-2.89 2.9-5.07zM782.48 810.31c-3.81 0-3.81 5.93 0 5.93 3.83 0 3.83-5.93 0-5.93z"/>
  <g>
    <path class="st9" d="M1397.46 858.02l-34.29-25.45-40.4 13.81 13.61-40.47-25.63-34.16 42.7.44 24.57-34.93L1390.8 778l40.8 12.57-34.79 24.75zM212.03 471.81l2.73-33.9-26.36-21.46 33.07-7.87 12.27-31.7 17.71 29.02 33.94 1.88-22.14 25.8 8.72 32.86-31.38-13.07zM488.07 1279.82l2.75-33.89-26.36-21.47 33.07-7.86 12.28-31.71 17.7 29.03 33.94 1.87-22.14 25.81 8.72 32.86-31.39-13.08zM1742.95 871.22l2.75-33.9-26.36-21.46 33.07-7.88 12.27-31.7 17.71 29.03 33.95 1.87-22.14 25.8 8.71 32.87-31.39-13.08zM666.28 515.18l12.14-54.71-38.19-41.02 55.81-5.36 27.19-49 22.34 51.4 55.02 10.73-42.01 37.14 6.8 55.63-48.28-28.45zM909.3 1442.43l-19.03-8.19-17.54 11.03 1.9-20.62-15.92-13.26 20.22-4.57 7.7-19.23 10.58 17.8 20.67 1.38-13.66 15.57zM1180.35 592.79l-19.03-8.19-17.53 11.03 1.9-20.62-15.91-13.26 20.2-4.56 7.7-19.24 10.58 17.81 20.68 1.37-13.66 15.57zM1605.81 468.54l-19.03-8.2-17.53 11.04 1.91-20.63-15.93-13.26 20.22-4.57 7.69-19.22 10.59 17.8 20.67 1.38-13.66 15.57zM356.75 935.13l-19.04-8.19-17.52 11.03 1.89-20.63-15.92-13.26 20.22-4.56 7.7-19.24 10.59 17.81 20.67 1.38-13.69 15.57zM1814.32 563.95l-19.04-8.19-17.54 11.03 1.92-20.63-15.92-13.26 20.21-4.57 7.69-19.22 10.59 17.8 20.67 1.38-13.67 15.57zM961.99 160.36l-17.81-15.55-22.93 5.86 9.29-21.76-12.66-19.99 23.57 2.11 15.08-18.22 5.29 23.07 21.99 8.73-20.31 12.14zM1217.53 952.05l-8.1-7.06-10.4 2.66 4.22-9.87-5.75-9.07 10.7.96 6.84-8.27 2.4 10.47 9.98 3.96-9.21 5.5zM407.89 626.28l-8.11-7.05-10.39 2.66 4.21-9.87-5.74-9.08 10.7.96 6.84-8.27 2.4 10.48 9.98 3.96-9.22 5.5zM1857.47 257.1l-8.09-7.06-10.39 2.66 4.21-9.88-5.76-9.06 10.7.95 6.84-8.26 2.41 10.46 9.97 3.96-9.21 5.52zM1232.48 376.88l-8.09-7.06-10.4 2.66 4.22-9.87-5.76-9.07 10.7.95 6.84-8.26 2.41 10.46 9.97 3.96-9.2 5.51zM731.36 1247.68l-8.1-7.06-10.4 2.67 4.22-9.88-5.75-9.07 10.69.96 6.85-8.27 2.41 10.47 9.96 3.96-9.2 5.51zM1504.41 1273.27l-43.71-8.42-31.72 31.26-5.51-44.19-39.51-20.49 40.3-18.9 7.29-43.92 30.44 32.5 44.02-6.65-21.52 38.99z"/>
  </g>
</svg>
